<ttFont>
<head>
    <!-- Most of this table will be recalculated by the compiler -->
    <tableVersion value="1.0"/>
    <fontRevision value="1.002"/>
    <checkSumAdjustment value="0xd01edd5"/>
    <magicNumber value="0x5f0f3cf5"/>
    <flags value="00000000 00000011"/>
    <unitsPerEm value="1000"/>
    <created value="Tue Jan  1 10:00:48 2019"/>
    <modified value="Mon Apr 27 13:28:52 2020"/>
    <xMin value="-58"/>
    <yMin value="-251"/>
    <xMax value="1290"/>
    <yMax value="886"/>
    <macStyle value="00000000 00000000"/>
    <lowestRecPPEM value="3"/>
    <fontDirectionHint value="2"/>
    <indexToLocFormat value="0"/>
    <glyphDataFormat value="0"/>
  </head>
          <CharString index="0">
            6 5 58 48 15 17 rrcurveto
            10 10 3 9 9 vvcurveto
            11 -4 10 -8 7 vhcurveto
            7 -7 -10 3 -9 hhcurveto
            -10 -11 -4 -9 -7 hvcurveto
            -18 -19 -70 -94 -8 -10 rrcurveto
            endchar
          </CharString>
          <CharString index="1">
            120 hstem
            return
          </CharString>
          <CharString index="2">
            rmoveto
            70 50 44 63 32 -16 34 -40 21 hvcurveto
            -60 -26 rlineto
            37 -13 13 -26 -26 vvcurveto
            -62 -62 -7 -32 vhcurveto
            endchar
          </CharString>
          <CharString index="3">
            rmoveto
            112 -101 rlineto
            -13 14 18 -6 18 hhcurveto
            17 18 6 13 14 hvcurveto
            112 101 rlineto
            -94 hlineto
            -68 -61 -67 61 rlineto
            endchar
          </CharString>
          <CharString index="4">
            -40 0 81 222 -86 callgsubr
            return
          </CharString>
          <CharString index="5">
            hstem
            76 94 return
          </CharString>
          <CharString index="6">
            -55 -12 74 368 74 return
          </CharString>
          <CharString index="7">
            19 21 27 callsubr
            return
          </CharString>
          <CharString index="8">
            -81 -12 67 -34 -21 437 67 return
          </CharString>
          <CharString index="9">
            rmoveto
            94 hlineto
            -84 callgsubr
            endchar
          </CharString>
          <CharString index="10">
            rmoveto
            -84 callgsubr
            -112 -101 rlineto
            endchar
          </CharString>
          <CharString index="11">
            -329 21 -21 429 67 return
          </CharString>
          <CharString index="12">
            668 -20 hstem
            return
          </CharString>
          <CharString index="13">
            -33 callsubr
            96 hmoveto
            -77 callgsubr
            -7 callsubr
            vhcurveto
            return
          </CharString>
          <CharString index="14">
            16 callgsubr
            212 hmoveto
            -9 callsubr
          </CharString>
          <CharString index="15">
            106 50 57 81 96 13 7 callsubr
            -44 77 -120 -84 -48 -36 -47 -28 vhcurveto
            return
          </CharString>
          <CharString index="16">
            -43 -46 callgsubr
            return
          </CharString>
          <CharString index="17">
            -10 -11 -4 -9 -7 vhcurveto
            -80 -101 -16 -22 rlineto
            return
          </CharString>
          <CharString index="18">
            -47 -192 74 127 70 353 72 -8 -20 return
          </CharString>
          <CharString index="19">
            -53 -41 -33 -71 -12 hvcurveto
            endchar
          </CharString>
          <CharString index="20">
            rlineto
            3 8 2 9 8 vvcurveto
            34 return
          </CharString>
          <CharString index="21">
            rmoveto
            -68 callgsubr
            return
          </CharString>
          <CharString index="22">
            74 -94 520 94 74 -282 -74 return
          </CharString>
          <CharString index="23">
            0 0 81 506 81 return
          </CharString>
          <CharString index="24">
            668 rlineto
            -88 hlineto
            return
          </CharString>
          <CharString index="25">
            rlineto
            115 hlineto
            return
          </CharString>
          <CharString index="26">
            38 246 rmoveto
            return
          </CharString>
          <CharString index="27">
            hstemhm
            10 606 return
          </CharString>
          <CharString index="28">
            -96 -95 -122 return
          </CharString>
          <CharString index="29">
            rmoveto
            -53 callgsubr
            30 49 -34 21 -51 -82 -23 callsubr
            endchar
          </CharString>
          <CharString index="30">
            42 callgsubr
            180 rmoveto
            -7 callgsubr
            -84 vlineto
            return
          </CharString>
          <CharString index="31">
            -82 30 rlineto
            -25 callsubr
            -1 callsubr
            return
          </CharString>
          <CharString index="32">
            -250 1 callgsubr
          </CharString>
          <CharString index="33">
            -91 77 -52 94 vhcurveto
            -78 145 rmoveto
            -89 callgsubr
            return
          </CharString>
          <CharString index="34">
            rmoveto
            -50 callgsubr
            -43 callgsubr
          </CharString>
          <CharString index="35">
            -15 callsubr
            hhcurveto
            return
          </CharString>
          <CharString index="36">
            -74 callgsubr
            -30 -24 -24 -29 -30 24 -24 30 hvcurveto
            return
          </CharString>
          <CharString index="37">
            48 callgsubr
            68 97 22 152 16 vhcurveto
            return
          </CharString>
          <CharString index="38">
            571 vlineto
            305 -571 rlineto
            138 668 -94 hlineto
            return
          </CharString>
          <CharString index="39">
            rmoveto
            -63 callsubr
            -35 29 -29 35 hvcurveto
            endchar
          </CharString>
          <CharString index="40">
            86 vlineto
            19 callgsubr
            return
          </CharString>
          <CharString index="41">
            -48 -3 13 51 hvcurveto
            291 96 67 -96 125 -84 -125 return
          </CharString>
          <CharString index="42">
            303 574 -64 callsubr
            return
          </CharString>
          <CharString index="43">
            rmoveto
            123 -347 rlineto
            -246 hlineto
            return
          </CharString>
          <CharString index="44">
            31 callsubr
            -35 -29 -29 -36 return
          </CharString>
          <CharString index="45">
            85 56 -68 -118 -118 -56 -68 -85 return
          </CharString>
          <CharString index="46">
            209 -12 rmoveto
            87 52 30 50 30 hvcurveto
            return
          </CharString>
          <CharString index="47">
            39 31 -43 55 hhcurveto
            63 34 52 22 return
          </CharString>
          <CharString index="48">
            -61 21 -101 callgsubr
            -8 -20 return
          </CharString>
          <CharString index="49">
            -178 -161 74 582 -20 return
          </CharString>
          <CharString index="50">
            -32 23 -26 31 -5 vhcurveto
            return
          </CharString>
          <CharString index="51">
            76 hmoveto
            453 81 -359 return
          </CharString>
          <CharString index="52">
            25 19 25 68 25 return
          </CharString>
          <CharString index="53">
            -157 -157 -127 return
          </CharString>
          <CharString index="54">
            70 -107 callgsubr
            -668 return
          </CharString>
          <CharString index="55">
            118 99 52 99 48 return
          </CharString>
          <CharString index="56">
            hintmask 10111100
            -22 75 rlineto
            return
          </CharString>
          <CharString index="57">
            -429 84 496 return
          </CharString>
          <CharString index="58">
            -21 496 -20 return
          </CharString>
          <CharString index="59">
            -106 callsubr
            46 97 314 -85 callgsubr
            return
          </CharString>
          <CharString index="60">
            -12 rmoveto
            172 92 123 224 222 -92 123 -172 -172 -92 -123 -222 -224 92 -123 172 hvcurveto
            -173 347 rmoveto
            59 6 51 14 41 vhcurveto
            264 -379 rlineto
            -29 -27 -37 -16 -47 hhcurveto
            -118 -55 98 175 hvcurveto
            173 271 rmoveto
            117 56 -97 -174 -57 -6 -49 -11 -39 hvcurveto
            -263 376 rlineto
            26 27 36 14 44 hhcurveto
            endchar
          </CharString>
          <CharString index="61">
            151 rmoveto
            -91 23 72 -72 135 hhcurveto
            127 115 65 135 70 -28 66 -100 31 hvcurveto
            hintmask 11110000
            70 29 39 58 68 vvcurveto
            124 -100 46 -116 -123 -80 -63 -95 -24 vhcurveto
            82 -24 rlineto
            66 13 48 46 82 hhcurveto
            71 59 -37 -72 -105 -114 -6 -75 hvcurveto
            -76 vlineto
            hintmask 11101000
            53 153 1 -128 -83 -63 -46 -88 -85 -48 47 70 -15 hvcurveto
            endchar
          </CharString>
          <CharString index="62">
            201 rmoveto
            19 17 2 4 17 hvcurveto
            -55 -91 -84 -116 0 vvcurveto
            104 hlineto
            102 150 88 165 13 33 rrcurveto
            12 30 6 31 30 vvcurveto
            135 -106 105 -133 -133 -106 -107 -131 -133 108 -107 131 vhcurveto
            393 vmoveto
            86 69 -69 -84 -85 -69 -69 -86 -85 -68 69 85 84 68 69 85 hvcurveto
            endchar
          </CharString>
          <CharString index="63">
            -24 callsubr
            4 callgsubr
            104 132 rmoveto
            19 callsubr
            36 callgsubr
            hvcurveto
            return
          </CharString>
          <CharString index="64">
            hstem
            -34 callgsubr
            vstem
            -3 callgsubr
            238 184 rmoveto
            18 callgsubr
            128 77 56 71 hvcurveto
            return
          </CharString>
          <CharString index="65">
            136 -41 callsubr
            return
          </CharString>
          <CharString index="66">
            hstem
            -34 callgsubr
            vstem
            -20 callgsubr
            return
          </CharString>
          <CharString index="67">
            -71 -12 24 callsubr
            230 84 hintmask 10111000
            227 -12 rmoveto
            82 45 36 48 28 hvcurveto
            hintmask 01111000
            -88 callgsubr
            hintmask 10111000
            -87 callgsubr
            -84 -317 vlineto
            -113 43 -79 116 vhcurveto
            return
          </CharString>
          <CharString index="68">
            hmoveto
            77 -368 vlineto
            187 135 163 138 155 vvcurveto
            112 -89 63 -123 -118 -84 -61 -97 -24 vhcurveto
            84 -24 rlineto
            81 16 61 31 63 hhcurveto
            79 46 -47 -69 -118 -138 -127 -236 -174 hvcurveto
            -75 vlineto
            endchar
          </CharString>
          <CharString index="69">
            5 callgsubr
            146 hmoveto
            70 hlineto
            10 callgsubr
            rlineto
            endchar
          </CharString>
          <CharString index="70">
            281 -12 rmoveto
            93 68 41 58 36 hvcurveto
            -81 24 rlineto
            -79 callgsubr
            -146 87 -113 156 hvcurveto
            return
          </CharString>
          <CharString index="71">
            vstem
            44 hmoveto
            519 81 -407 hlineto
            392 506 rlineto
            81 -489 -81 379 vlineto
            -394 -506 rlineto
            return
          </CharString>
          <CharString index="72">
            hstem
            76 94 350 94 vstem
            76 -107 callgsubr
            -389 vlineto
            -5 callgsubr
            vlineto
            return
          </CharString>
          <CharString index="73">
            -68 callgsubr
            hintmask 11101100
            -72 callsubr
            hintmask 11011100
            -48 callgsubr
          </CharString>
          <CharString index="74">
            hstem
            50 96 435 96 vstem
            -33 callgsubr
            -40 callgsubr
            -16 callsubr
            vhcurveto
            return
          </CharString>
          <CharString index="75">
            -24 callsubr
            hvcurveto
            21 423 rmoveto
            36 callgsubr
            19 callsubr
            hvcurveto
            return
          </CharString>
          <CharString index="76">
            -10 callgsubr
            hvcurveto
            return
          </CharString>
          <CharString index="77">
            -29 callsubr
            hvcurveto
            return
          </CharString>
          <CharString index="78">
            -77 28 rlineto
            -37 -22 -42 -28 -54 hhcurveto
            -74 -69 60 125 125 68 58 75 51 43 -26 -40 22 hvcurveto
            77 28 rlineto
            61 -32 -66 51 -89 hhcurveto
            -147 -93 -110 -148 return
          </CharString>
          <CharString index="79">
            rmoveto
            -51 callgsubr
            -54 109 -13 callsubr
          </CharString>
          <CharString index="80">
            -71 callsubr
            158 54 rmoveto
            -9 callsubr
          </CharString>
          <CharString index="81">
            66 hintmask 11110000
            284 hmoveto
            74 -45 vlineto
            -66 callsubr
            -84 34 callgsubr
            return
          </CharString>
          <CharString index="82">
            -61 -31 -59 -41 -87 hhcurveto
            -125 -88 -49 callgsubr
            hvcurveto
            82 30 rlineto
            97 -46 -95 54 -112 hhcurveto
            return
          </CharString>
          <CharString index="83">
            52 -31 -48 34 -79 hhcurveto
            -110 -100 -89 -159 -159 100 -88 110 return
          </CharString>
          <CharString index="84">
            rlineto
            -2 -3 -1 -3 -4 vvcurveto
            -12 10 -12 18 5 vhcurveto
            3 12 10 2 9 hhcurveto
            25 11 -12 -13 -16 -17 -18 -34 -16 -19 4 10 -23 hvcurveto
            return
          </CharString>
          <CharString index="85">
            -344 -173 58 hstem
            53 70 vstem
            53 -91 rmoveto
            -91 callsubr
            return
          </CharString>
          <CharString index="86">
            rmoveto
            -35 callgsubr
            vhcurveto
            -56 callgsubr
            hvcurveto
            endchar
          </CharString>
          <CharString index="87">
            rmoveto
            -1 callgsubr
          </CharString>
          <CharString index="88">
            -837 1 callgsubr
          </CharString>
          <CharString index="89">
            203 -281 -82 callsubr
            -207 288 rlineto
            155 22 30 75 91 vvcurveto
            160 -115 32 -163 vhcurveto
            -212 return
          </CharString>
          <CharString index="90">
            -15 callsubr
            -42 -26 43 -56 hhcurveto
            return
          </CharString>
          <CharString index="91">
            193 121 145 202 201 -121 144 -193 -192 -121 -144 -201 return
          </CharString>
          <CharString index="92">
            -60 callsubr
            47 callgsubr
            hvcurveto
            -15 -9 -10 -8 -20 return
          </CharString>
          <CharString index="93">
            76 hmoveto
            -6 callsubr
            -453 hlineto
            return
          </CharString>
          <CharString index="94">
            rmoveto
            28 23 23 29 26 callgsubr
            vhcurveto
            endchar
          </CharString>
          <CharString index="95">
            rmoveto
            26 callgsubr
            28 23 23 29 hvcurveto
            endchar
          </CharString>
          <CharString index="96">
            66 74 rmoveto
            -74 282 -85 callsubr
            94 -520 vlineto
            return
          </CharString>
          <CharString index="97">
            23 callsubr
            -34 -7 -25 -17 -31 -53 -65 55 -83 hhcurveto
            return
          </CharString>
          <CharString index="98">
            -30 24 -24 29 -47 callgsubr
            vhcurveto
            endchar
          </CharString>
          <CharString index="99">
            hstem
            114 84 vstem
            45 429 rmoveto
            69 -50 callsubr
            -153 hlineto
            return
          </CharString>
          <CharString index="100">
            122 96 -94 -172 -173 -79 callsubr
            -121 -96 95 173 return
          </CharString>
          <CharString index="101">
            453 -4 callsubr
            return
          </CharString>
          <CharString index="102">
            hmoveto
            105 hlineto
            278 587 rlineto
            81 -461 -81 368 vlineto
            endchar
          </CharString>
          <CharString index="103">
            81 -359 222 -70 callgsubr
            return
          </CharString>
          <CharString index="104">
            rmoveto
            276 67 -276 hlineto
            endchar
          </CharString>
          <CharString index="105">
            110 hmoveto
            5 callsubr
            return
          </CharString>
          <CharString index="106">
            -189 -122 -137 -208 return
          </CharString>
          <CharString index="107">
            rmoveto
            3 callsubr
            return
          </CharString>
          <CharString index="108">
            -155 155 -191 -191 -155 -155 return
          </CharString>
          <CharString index="109">
            -230 21 -100 callgsubr
            hstem
            15 347 vstem
            return
          </CharString>
          <CharString index="110">
            468 -83 callsubr
            -468 -668 rlineto
            return
          </CharString>
          <CharString index="111">
            100 81 81 100 101 -81 81 -100 -101 -81 -81 -101 return
          </CharString>
          <CharString index="112">
            51 146 rlineto
            304 hlineto
            51 -146 rlineto
            return
          </CharString>
          <CharString index="113">
            -339 571 136 hstem
            53 162 vstem
            return
          </CharString>
          <CharString index="114">
            -67 -76 vhcurveto
            -289 84 314 vlineto
            113 return
          </CharString>
          <CharString index="115">
            -54 21 -49 callsubr
            hstem
            40 473 vstem
            return
          </CharString>
          <CharString index="116">
            57 callgsubr
            hstemhm
            76 94 return
          </CharString>
          <CharString index="117">
            91 -25 74 214 75 -25 91 hintmask 11110010
            return
          </CharString>
          <CharString index="118">
            -374 -95 callsubr
            76 81 vstem
            76 return
          </CharString>
          <CharString index="119">
            222 -587 94 587 222 81 return
          </CharString>
          <CharString index="120">
            70 496 rmoveto
            -496 84 269 vlineto
            return
          </CharString>
          <CharString index="121">
            47 callgsubr
            vhcurveto
            return
          </CharString>
          <CharString index="122">
            80 172 -20 hstem
            230 81 vstem
            40 return
          </CharString>
          <CharString index="123">
            33 77 6 -69 -38 -32 -23 -41 -41 -22 return
          </CharString>
          <CharString index="124">
            -254 40 421 hstem
            53 247 vstem
            return
          </CharString>
          <CharString index="125">
            -101 callgsubr
            44 67 -67 120 hstemhm
            return
          </CharString>
          <CharString index="126">
            -82 -58 64 113 113 58 63 82 return
          </CharString>
          <CharString index="127">
            hstemhm
            53 129 34 129 hintmask 01110000
            return
          </CharString>
          <CharString index="128">
            -12 70 256 76 220 70 hstemhm
            return
          </CharString>
          <CharString index="129">
            0 79 224 80 206 79 hstem
            return
          </CharString>
          <CharString index="130">
            71 50 41 61 15 hvcurveto
            -74 22 rlineto
            return
          </CharString>
          <CharString index="131">
            74 -41 -21 497 -20 hstemhm
            68 84 return
          </CharString>
          <CharString index="132">
            -45 40 421 hstem
            53 456 vstem
            return
          </CharString>
          <CharString index="133">
            21 -21 165 79 424 -20 hstem
            return
          </CharString>
          <CharString index="134">
            -21 146 81 347 95 0 -20 return
          </CharString>
          <CharString index="135">
            -56 68 118 118 56 68 return
          </CharString>
          <CharString index="136">
            79 hlineto
            -17 87 0 67 33 vvcurveto
            return
          </CharString>
          <CharString index="137">
            129 hstem
            53 129 vstem
            53 return
          </CharString>
          <CharString index="138">
            36 29 29 35 36 -29 29 -36 return
          </CharString>
          <CharString index="139">
            -21 429 67 94 125 hstemhm
            return
          </CharString>
          <CharString index="140">
            -72 -50 -41 -61 -15 hvcurveto
            endchar
          </CharString>
          <CharString index="141">
            hlineto
            24 172 rlineto
            return
          </CharString>
          <CharString index="142">
            -47 -4 13 51 hvcurveto
            return
          </CharString>
        <CharString name=".notdef">
          -80 0 21 659 20 hstem
          50 21 386 20 vstem
          50 hmoveto
          427 700 -427 hlineto
          29 -679 rmoveto
          185 308 185 -308 rlineto
          -378 28 rmoveto
          601 vlineto
          180 -300 rlineto
          206 -303 rmoveto
          -181 303 181 302 rlineto
          -194 -281 rmoveto
          -185 309 rlineto
          371 hlineto
          endchar
        </CharString>
        <CharString name="A">
          -100 callsubr
          -80 callsubr
          hintmask 11011000
          -82 callgsubr
          hintmask 11101000
          52 -95 -64 callsubr
          endchar
        </CharString>
        <CharString name="AE">
          391 0 81 64 81 77 81 203 81 hstem
          506 94 vstem
          10 hmoveto
          109 hlineto
          104 145 rlineto
          283 -145 454 81 -360 222 266 81 -266 203 360 81 -464 hlineto
          10 -122 rmoveto
          -320 -227 vlineto
          endchar
        </CharString>
        <CharString name="Aacute">
          -21 callgsubr
          163 517 -98 callgsubr
        </CharString>
        <CharString name="Abreve">
          -100 callsubr
          86 67 -80 callsubr
          hintmask 11011100
          -82 callgsubr
          -71 -442 rmoveto
          hintmask 11101100
          -41 callgsubr
          -44 628 -95 callgsubr
        </CharString>
        <CharString name="Acircumflex">
          -100 callsubr
          98 120 -80 callsubr
          hintmask 11011100
          110 hmoveto
          51 146 rlineto
          304 hlineto
          51 -146 rlineto
          100 hlineto
          -250 669 rlineto
          -105 hlineto
          -251 -669 rlineto
          hintmask 11101100
          -65 callsubr
          56 520 -97 callsubr
        </CharString>
        <CharString name="Adieresis">
          -100 callsubr
          91 107 hstemhm
          154 -106 callgsubr
          hintmask 11011110
          -17 callgsubr
          hintmask 11101110
          -41 callgsubr
          -228 513 -62 callgsubr
        </CharString>
        <CharString name="Agrave">
          -21 callgsubr
          6 569 -60 callgsubr
        </CharString>
        <CharString name="Amacron">
          -100 callsubr
          113 67 -80 callsubr
          -441 276 hintmask 11011100
          -17 callgsubr
          hintmask 11101010
          -41 callgsubr
          15 535 -73 callgsubr
        </CharString>
        <CharString name="Aogonek">
          19 -173 58 136 27 callsubr
          hstemhm
          459 70 hintmask 11101100
          -2 callsubr
          -26 -14 -31 -29 -48 vvcurveto
          -91 callsubr
          28 34 31 20 56 20 hvcurveto
          -250 669 rlineto
          -105 hlineto
          -251 -669 rlineto
          hintmask 11110100
          -65 callsubr
          endchar
        </CharString>
        <CharString name="Aring">
          19 21 -21 146 81 451 -20 122 58 hstem
          204 57 104 57 vstem
          -2 callsubr
          100 hlineto
          -239 640 rlineto
          28 20 17 33 36 vvcurveto
          59 -46 50 -61 -62 -49 -50 -59 -36 18 -32 28 -20 vhcurveto
          -240 -641 rlineto
          303 574 -64 callsubr
          123 553 -12 callsubr
        </CharString>
        <CharString name="Atilde">
          -100 callsubr
          100 -90 callgsubr
          10 606 hintmask 11011010
          110 hmoveto
          5 callsubr
          100 hlineto
          -250 669 rlineto
          -105 hlineto
          -251 -669 rlineto
          hintmask 11100110
          -65 callsubr
          -41 524 rmoveto
          65 hlineto
          -68 callgsubr
          hintmask 11011010
          -72 callsubr
          hintmask 11010110
          -48 callgsubr
        </CharString>
        <CharString name="B">
          12 0 79 229 74 207 79 hstemhm
          76 94 287 95 -68 97 hintmask 11110100
          76 hmoveto
          285 hlineto
          146 74 96 96 64 -33 64 -66 35 hvcurveto
          hintmask 11111000
          45 38 25 56 53 vvcurveto
          85 -62 81 -145 vhcurveto
          -269 hlineto
          94 -360 rmoveto
          200 hlineto
          hintmask 11110100
          76 38 -56 -57 -58 -39 -58 -74 hvcurveto
          -201 hlineto
          185 510 rmoveto
          hintmask 11111000
          67 35 -53 -52 -51 -34 -51 -68 hvcurveto
          -185 207 hlineto
          endchar
        </CharString>
        <CharString name="C">
          49 -103 callgsubr
          hstem
          50 96 vstem
          353 -12 rmoveto
          118 99 52 99 48 hvcurveto
          -82 30 rlineto
          -61 -31 -59 -41 -87 hhcurveto
          -125 -88 -49 callgsubr
          hvcurveto
          82 30 rlineto
          97 -46 8 callgsubr
          -203 112 -144 191 hvcurveto
          endchar
        </CharString>
        <CharString name="Cacute">
          49 -103 callgsubr
          hstem
          50 96 vstem
          50 335 rmoveto
          -203 112 -144 191 -52 callsubr
          vhcurveto
          -76 callsubr
          hvcurveto
          267 409 rmoveto
          76 hlineto
          -94 callgsubr
        </CharString>
        <CharString name="Ccaron">
          49 -103 callgsubr
          61 -106 callsubr
          50 96 vstem
          353 -12 rmoveto
          -52 callsubr
          hvcurveto
          -76 callsubr
          58 callgsubr
          hvcurveto
          -155 873 -104 callsubr
        </CharString>
        <CharString name="Ccedilla">
          64 -181 41 59 40 31 77 -56 -21 611 79 hstemhm
          59 96 231 62 hintmask 11011110
          59 335 rmoveto
          -189 97 -138 167 -18 vhcurveto
          -29 -47 rlineto
          -2 -3 -1 -3 -4 vvcurveto
          -12 10 -12 18 5 vhcurveto
          3 12 10 2 9 hhcurveto
          25 11 -12 -13 -16 -17 -18 -34 -16 -19 4 10 -23 hvcurveto
          -14 -35 rlineto
          -53 callgsubr
          20 33 115 2 96 52 47 97 rlinecurve
          -82 30 rlineto
          hintmask 11101110
          -25 callsubr
          hintmask 11011110
          -1 callsubr
          hvcurveto
          endchar
        </CharString>
        <CharString name="Cdotaccent">
          49 -103 callgsubr
          62 108 hstem
          50 96 161 108 vstem
          -33 callgsubr
          58 callgsubr
          -52 callsubr
          vhcurveto
          -76 callsubr
          hvcurveto
          311 407 -52 callgsubr
        </CharString>
        <CharString name="D">
          66 0 79 510 79 hstem
          76 94 357 96 vstem
          76 hmoveto
          182 hlineto
          212 153 79 256 254 -153 79 -212 hvcurveto
          -182 hlineto
          94 -79 rmoveto
          86 hlineto
          19 callgsubr
          -86 hlineto
          endchar
        </CharString>
        <CharString name="Dcaron">
          66 0 79 510 79 73 -72 callgsubr
          357 96 vstem
          258 hmoveto
          212 153 79 256 254 -153 79 -212 hvcurveto
          -182 -668 hlineto
          94 79 rmoveto
          510 -67 callsubr
          21 681 -105 callgsubr
        </CharString>
        <CharString name="Dcroat">
          125 22 callsubr
          135 94 357 96 vstem
          40 383 rmoveto
          -80 95 -303 182 vlineto
          212 153 79 256 254 -153 79 -212 hvcurveto
          -182 -285 hlineto
          94 hmoveto
          206 -67 callsubr
          -86 224 140 80 hlineto
          endchar
        </CharString>
        <CharString name="E">
          -103 callsubr
          2 callgsubr
          endchar
        </CharString>
        <CharString name="Eacute">
          -103 callsubr
          76 3 callgsubr
          265 76 rmoveto
          -94 callgsubr
        </CharString>
        <CharString name="Ecaron">
          -103 callsubr
          73 0 callgsubr
          -276 92 -105 callgsubr
        </CharString>
        <CharString name="Ecircumflex">
          -103 callsubr
          82 3 callgsubr
          66 82 rmoveto
          94 hlineto
          -84 callgsubr
          endchar
        </CharString>
        <CharString name="Edieresis">
          -103 callsubr
          74 107 hstemhm
          76 94 -41 -106 callgsubr
          hintmask 11101000
          -14 callsubr
          hintmask 11110110
          107 74 rmoveto
          -71 callsubr
          211 hmoveto
          -83 callgsubr
        </CharString>
        <CharString name="Edotaccent">
          -103 callsubr
          94 108 -102 callsubr
          79 108 vstem
          76 -107 callgsubr
          -668 -6 callsubr
          vlineto
          -280 148 -93 callgsubr
        </CharString>
        <CharString name="Egrave">
          -103 callsubr
          76 0 callgsubr
          -335 160 rmoveto
          -11 6 -12 10 -9 vhcurveto
          18 -15 57 -33 6 -4 rrcurveto
          76 hlineto
          -106 107 rlineto
          10 -9 -12 3 -10 hhcurveto
          -20 -16 -16 -20 hvcurveto
          endchar
        </CharString>
        <CharString name="Emacron">
          -103 callsubr
          94 67 -102 callsubr
          vstem
          -14 callsubr
          365 94 -73 callgsubr
        </CharString>
        <CharString name="Eogonek">
          -40 -173 58 115 81 222 -86 callgsubr
          -102 callsubr
          182 70 vstem
          409 -6 callgsubr
          20 -4 callsubr
          -453 -668 hlineto
          endchar
        </CharString>
        <CharString name="Eth">
          105 22 callsubr
          115 94 357 96 vstem
          20 383 rmoveto
          -80 95 -303 182 vlineto
          212 153 79 256 254 -153 79 -212 hvcurveto
          -182 -285 hlineto
          94 hmoveto
          206 -67 callsubr
          -86 224 140 80 hlineto
          endchar
        </CharString>
        <CharString name="Euro">
          57 -12 79 173 51 86 51 173 79 hstem
          99 89 vstem
          100 377 rmoveto
          -1 -14 0 -14 -15 vvcurveto
          -14 0 -15 1 -14 vhcurveto
          -57 hlineto
          -28 -51 rlineto
          91 hlineto
          -152 28 97 -100 149 hhcurveto
          110 91 52 99 45 hvcurveto
          -77 28 rlineto
          -60 -29 -55 -40 -80 hhcurveto
          -92 -70 63 110 -26 hvcurveto
          146 hlineto
          28 51 rlineto
          -182 hlineto
          -1 14 0 14 15 vvcurveto
          15 0 15 1 13 vhcurveto
          229 hlineto
          28 51 rlineto
          -249 hlineto
          113 25 72 60 88 hhcurveto
          81 54 -41 -60 28 hvcurveto
          78 28 rlineto
          97 -44 -88 55 -104 hhcurveto
          -148 -104 -98 -154 -29 hvcurveto
          -63 hlineto
          -28 -51 rlineto
          endchar
        </CharString>
        <CharString name="F">
          -59 21 -21 303 -86 callgsubr
          -37 callgsubr
          94 303 340 81 -340 203 340 81 vlineto
          endchar
        </CharString>
        <CharString name="G">
          103 -12 25 callgsubr
          407 89 hintmask 10111100
          15 callgsubr
          hintmask 01111100
          22 callgsubr
          hintmask 10111100
          -31 callsubr
          endchar
        </CharString>
        <CharString name="Gbreve">
          33 callgsubr
          61 67 hstemhm
          50 96 407 89 hintmask 10111110
          -24 callgsubr
          hintmask 01111110
          49 callgsubr
          81 516 -95 callgsubr
        </CharString>
        <CharString name="Gdotaccent">
          33 callgsubr
          82 108 hstemhm
          50 96 157 108 142 89 hintmask 10110111
          15 callgsubr
          hintmask 01110111
          22 callgsubr
          hintmask 10110111
          -31 callsubr
          hintmask 10111111
          307 427 -52 callgsubr
        </CharString>
        <CharString name="H">
          83 21 -21 303 81 284 -20 -102 callsubr
          350 94 vstem
          76 -107 callgsubr
          -668 55 callgsubr
          668 -94 -284 -350 284 vlineto
          endchar
        </CharString>
        <CharString name="Hbar">
          103 21 -21 303 81 120 79 -79 164 hstemhm
          86 94 350 94 hintmask 11101100
          624 583 rmoveto
          hintmask 11011100
          85 -94 vlineto
          hintmask 11101100
          -85 -350 vlineto
          hintmask 11011100
          85 -94 vlineto
          hintmask 11101100
          -85 -76 -79 76 -504 55 callgsubr
          504 76 79 vlineto
          -170 -79 rmoveto
          -120 -350 120 vlineto
          endchar
        </CharString>
        <CharString name="I">
          -91 callgsubr
          hstem
          160 94 vstem
          66 74 rmoveto
          -74 282 -85 callsubr
          94 -520 vlineto
          endchar
        </CharString>
        <CharString name="Iacute">
          -91 callgsubr
          76 -106 callsubr
          160 94 vstem
          348 hmoveto
          74 -94 520 94 74 -282 -74 94 -520 -94 -74 vlineto
          176 744 -98 callgsubr
        </CharString>
        <CharString name="Icircumflex">
          -91 callgsubr
          79 -106 callsubr
          160 94 vstem
          160 594 rmoveto
          -520 -94 -74 282 -85 callsubr
          vlineto
          -20 153 -98 callsubr
        </CharString>
        <CharString name="Idieresis">
          -91 callgsubr
          72 107 hstemhm
          48 108 4 94 6 107 hintmask 11001000
          348 hmoveto
          -85 callsubr
          94 -520 -94 -74 vlineto
          hintmask 11110100
          -18 794 -93 callsubr
        </CharString>
        <CharString name="Igrave">
          -91 callgsubr
          76 -106 callsubr
          160 94 vstem
          -11 callsubr
          -66 722 -60 callgsubr
        </CharString>
        <CharString name="Imacron">
          -91 callgsubr
          94 67 hstemhm
          69 276 -185 94 hintmask 11101000
          -11 callsubr
          hintmask 11110000
          -91 688 -3 callsubr
        </CharString>
        <CharString name="Iogonek">
          -193 -173 58 115 74 520 74 hstemhm
          111 70 -21 94 hintmask 01101000
          hintmask 11110000
          168 -6 callgsubr
          hintmask 01101000
          80 74 -94 520 94 74 -282 -74 94 -520 hlineto
          hintmask 01110000
          -94 -74 hlineto
          endchar
        </CharString>
        <CharString name="J">
          -97 -12 77 603 -20 hstem
          15 87 238 94 vstem
          15 189 rmoveto
          -133 6 78 -68 125 hhcurveto
          131 79 78 146 hvcurveto
          456 -94 -455 vlineto
          -121 -62 -27 -54 -67 -58 48 101 3 vhcurveto
          endchar
        </CharString>
        <CharString name="K">
          20 21 -100 callgsubr
          -37 callgsubr
          94 210 vlineto
          100 110 232 -320 -82 callsubr
          -284 389 255 279 rlineto
          -117 hlineto
          -301 -336 rlineto
          336 vlineto
          endchar
        </CharString>
        <CharString name="L">
          -68 0 81 587 -20 -102 callsubr
          vstem
          -56 callsubr
          587 -94 hlineto
          endchar
        </CharString>
        <CharString name="Lcaron">
          -68 0 81 415 172 11 -20 hstemhm
          76 94 hintmask 10110000
          -56 callsubr
          hlineto
          hintmask 11010000
          587 -94 vlineto
          202 -172 rmoveto
          hintmask 10110000
          -50 callgsubr
          hintmask 11010000
          -43 callgsubr
        </CharString>
        <CharString name="Lslash">
          -34 0 81 424 -20 184 -20 hstem
          110 94 vstem
          20 216 rmoveto
          90 54 rlineto
          -270 453 81 -359 245 vlineto
          180 108 rlineto
          71 vlineto
          -180 -108 rlineto
          272 -94 -329 vlineto
          -90 -53 rlineto
          endchar
        </CharString>
        <CharString name="M">
          213 0 122 -101 -21 570 98 hstemhm
          76 94 480 94 hintmask 01111000
          76 -107 callgsubr
          -668 94 570 vlineto
          194 -570 rlineto
          93 hlineto
          193 570 rlineto
          -570 94 668 -156 vlineto
          hintmask 10111000
          -178 -546 -178 546 rlineto
          endchar
        </CharString>
        <CharString name="N">
          82 0 9 callsubr
          349 94 hintmask 01011100
          76 -107 callgsubr
          -668 94 vlineto
          hintmask 01101100
          -69 callsubr
          hintmask 10011100
          -568 vlineto
          -304 568 rlineto
          endchar
        </CharString>
        <CharString name="NULL">
          -607 endchar
        </CharString>
        <CharString name="Nacute">
          -45 callgsubr
          97 -11 callgsubr
          319 77 rmoveto
          -94 callgsubr
        </CharString>
        <CharString name="Ncaron">
          -45 callgsubr
          93 -11 callgsubr
          219 92 -105 callgsubr
        </CharString>
        <CharString name="Ntilde">
          -45 callgsubr
          101 -90 callgsubr
          76 94 349 94 hintmask 01011011
          170 hmoveto
          hintmask 01101011
          -69 callsubr
          hintmask 10010111
          35 callgsubr
          -668 hlineto
          168 751 -86 callsubr
          hintmask 01011011
          -17 callsubr
          hintmask 01010111
          -88 callsubr
        </CharString>
        <CharString name="O">
          -96 callgsubr
          -94 callsubr
          endchar
        </CharString>
        <CharString name="OE">
          445 -12 81 -69 81 223 -86 callgsubr
          -67 78 hstemhm
          50 96 435 74 hintmask 10110110
          363 -12 rmoveto
          90 74 32 55 54 hvcurveto
          hintmask 01110110
          -75 433 81 -359 223 -70 callgsubr
          -433 -72 vlineto
          hintmask 10101110
          52 -54 -74 31 -90 hhcurveto
          -192 -121 -142 -203 -202 121 -145 192 hvcurveto
          614 vmoveto
          110 108 -81 -187 -174 -98 -91 -120 -121 -96 94 172 173 96 94 121 hvcurveto
          endchar
        </CharString>
        <CharString name="Oacute">
          -96 callgsubr
          64 120 -94 callsubr
          253 409 -98 callgsubr
        </CharString>
        <CharString name="Ocircumflex">
          -96 callgsubr
          67 120 -94 callsubr
          150 412 -97 callsubr
        </CharString>
        <CharString name="Odieresis">
          -96 callgsubr
          62 107 hstem
          50 96 58 -106 callgsubr
          58 96 vstem
          363 -12 rmoveto
          193 121 145 202 6 callgsubr
          hvcurveto
          613 vmoveto
          -7 callsubr
          -77 callgsubr
          hvcurveto
          -159 195 rmoveto
          -30 24 -24 30 30 24 24 30 29 -24 24 -30 -30 -24 -24 -29 vhcurveto
          212 hmoveto
          -30 24 -24 29 -47 callgsubr
          vhcurveto
          endchar
        </CharString>
        <CharString name="Ograve">
          -96 callgsubr
          64 120 -33 callsubr
          313 266 rmoveto
          122 96 -94 -172 -173 -79 callsubr
          -121 -96 95 173 -77 callgsubr
          hvcurveto
          -114 195 rmoveto
          -55 callgsubr
          -11 6 -12 10 -9 hvcurveto
          endchar
        </CharString>
        <CharString name="Ohungarumlaut">
          -96 callgsubr
          64 136 -94 callsubr
          187 409 -18 callgsubr
        </CharString>
        <CharString name="Oslash">
          120 -12 79 -52 -21 605 81 -7 -20 hstemhm
          50 96 435 96 hintmask 01101100
          50 333 rmoveto
          -93 27 -83 48 -60 vhcurveto
          -60 -70 38 -33 57 66 rlineto
          hintmask 10011100
          -46 52 69 -26 82 hhcurveto
          193 121 144 201 97 -28 83 -50 61 hvcurveto
          56 67 -39 32 -53 -63 rlineto
          hintmask 10101100
          45 -52 -68 25 -80 hhcurveto
          -192 -121 -145 -202 hvcurveto
          167 -206 rmoveto
          321 376 rlineto
          27 -43 16 -57 -70 vvcurveto
          -171 -79 callsubr
          -56 -52 21 39 -38 vhcurveto
          146 472 rmoveto
          55 50 -19 -37 38 hvcurveto
          -320 -374 rlineto
          -26 42 -14 56 66 vvcurveto
          173 96 93 121 vhcurveto
          endchar
        </CharString>
        <CharString name="Otilde">
          -96 callgsubr
          70 -90 callgsubr
          50 96 435 96 hintmask 11011100
          363 -12 rmoveto
          -16 callsubr
          -40 callgsubr
          hvcurveto
          -217 347 rmoveto
          172 96 94 121 122 96 -94 -172 -173 -79 callsubr
          -121 -96 95 173 vhcurveto
          49 417 rmoveto
          65 hlineto
          -34 callsubr
        </CharString>
        <CharString name="P">
          -6 22 -21 265 81 242 79 hstem
          76 94 297 96 vstem
          76 1 rmoveto
          94 265 115 hlineto
          163 115 35 165 165 -115 37 -163 hvcurveto
          -209 hlineto
          217 -79 rmoveto
          97 77 -14 -109 -109 -77 -10 -97 hvcurveto
          -123 242 hlineto
          endchar
        </CharString>
        <CharString name="Q">
          146 -12 79 534 79 hstem
          50 96 435 96 vstem
          363 -12 rmoveto
          85 72 28 49 52 hvcurveto
          117 -109 64 68 -123 115 rlineto
          30 55 17 66 75 vvcurveto
          6 callgsubr
          vhcurveto
          613 vmoveto
          122 96 -94 -172 -50 -8 -43 -14 -36 hvcurveto
          -166 156 -64 -68 179 -168 rlineto
          -39 -38 -51 -20 -56 hhcurveto
          -121 -96 95 173 -77 callgsubr
          hvcurveto
          endchar
        </CharString>
        <CharString name="R">
          -42 callgsubr
          hstem
          76 94 300 96 vstem
          170 hmoveto
          281 100 vlineto
          -18 callsubr
          -668 hlineto
          219 589 rmoveto
          98 77 -12 -103 -103 -77 -11 -98 hvcurveto
          -125 229 hlineto
          endchar
        </CharString>
        <CharString name="Racute">
          -42 callgsubr
          76 -72 callgsubr
          300 96 vstem
          170 hmoveto
          281 100 vlineto
          -18 callsubr
          -668 hlineto
          219 589 rmoveto
          98 77 -12 -103 -103 -77 -11 -98 hvcurveto
          -125 229 hlineto
          93 155 rmoveto
          76 hlineto
          -94 callgsubr
        </CharString>
        <CharString name="Rcaron">
          -42 callgsubr
          73 -72 callgsubr
          300 96 vstem
          76 hmoveto
          94 281 100 hlineto
          203 -281 -82 callsubr
          -207 288 rlineto
          155 22 30 75 91 vvcurveto
          160 -115 32 -163 vhcurveto
          -212 hlineto
          94 -79 rmoveto
          125 hlineto
          98 77 -12 -103 -103 -77 -11 -98 hvcurveto
          -125 hlineto
          -22 501 -104 callsubr
        </CharString>
        <CharString name="S">
          -11 -103 callgsubr
          hstem
          46 97 314 -85 callgsubr
          endchar
        </CharString>
        <CharString name="Sacute">
          -11 -103 callgsubr
          64 -48 callsubr
          201 572 -98 callgsubr
        </CharString>
        <CharString name="Scaron">
          -11 -103 callgsubr
          61 -48 callsubr
          10 689 -104 callsubr
        </CharString>
        <CharString name="Scedilla">
          -11 -181 41 59 40 30 78 534 79 hstem
          46 97 186 62 66 -85 callgsubr
          79 -333 -78 callsubr
        </CharString>
        <CharString name="T">
          -49 21 -21 587 81 hstem
          232 94 vstem
          10 587 rmoveto
          12 callsubr
          -538 hlineto
          endchar
        </CharString>
        <CharString name="Tcaron">
          -49 21 -21 587 81 73 -106 callsubr
          232 94 vstem
          10 -107 callgsubr
          -81 12 callsubr
          vlineto
          -318 92 -105 callgsubr
        </CharString>
        <CharString name="Thorn">
          -31 21 -21 163 -86 callgsubr
          140 -20 hstem
          76 84 281 97 vstem
          160 hmoveto
          163 127 vlineto
          148 103 32 150 149 -103 34 -148 hvcurveto
          -127 140 -84 -668 hlineto
          220 447 rmoveto
          81 64 -12 -91 -92 -64 -8 -81 hvcurveto
          -136 203 hlineto
          endchar
        </CharString>
        <CharString name="U">
          -104 callgsubr
          -15 callgsubr
          endchar
        </CharString>
        <CharString name="Uacute">
          -104 callgsubr
          96 120 -15 callgsubr
          36 756 -98 callgsubr
        </CharString>
        <CharString name="Ucircumflex">
          -104 callgsubr
          99 120 -13 callgsubr
          202 79 -97 callsubr
        </CharString>
        <CharString name="Udieresis">
          -104 callgsubr
          95 107 hstemhm
          76 94 16 -106 callgsubr
          15 94 hintmask 11110010
          -63 callgsubr
          hintmask 11111110
          -105 755 -62 callgsubr
        </CharString>
        <CharString name="Ugrave">
          -104 callgsubr
          96 120 -35 callsubr
          61 128 rmoveto
          -55 callgsubr
          -11 6 -12 10 -9 hvcurveto
          endchar
        </CharString>
        <CharString name="Uhungarumlaut">
          -104 callgsubr
          96 136 -35 callsubr
          140 76 rmoveto
          -78 callgsubr
          21 -17 17 -21 -90 callsubr
          216 hmoveto
          81 71 rlineto
          9 8 2 10 9 vvcurveto
          20 -18 18 -20 -90 callsubr
          endchar
        </CharString>
        <CharString name="Umacron">
          -104 callgsubr
          114 67 -13 callgsubr
          407 94 -73 callgsubr
        </CharString>
        <CharString name="Uogonek">
          83 -173 58 104 80 599 -20 -102 callsubr
          97 70 183 94 vstem
          76 279 rmoveto
          -182 65 -96 166 -12 vhcurveto
          -21 -16 -19 -26 -38 vvcurveto
          -91 callsubr
          28 29 22 19 41 17 hvcurveto
          154 17 60 96 175 vvcurveto
          389 -94 -396 vlineto
          -132 -47 -71 -128 -128 -47 71 132 vhcurveto
          396 -94 vlineto
          endchar
        </CharString>
        <CharString name="Uring">
          -104 callgsubr
          20 58 102 58 hstemhm
          76 94 66 57 104 57 66 94 hintmask 11011111
          -63 callgsubr
          -109 789 rmoveto
          -59 49 -50 62 61 46 50 59 51 callgsubr
          vhcurveto
          57 hmoveto
          28 23 23 29 29 23 -23 -28 vhcurveto
          hintmask 10111111
          56 callgsubr
          vhcurveto
          endchar
        </CharString>
        <CharString name="V">
          -18 0 110 -89 -100 callgsubr
          hstemhm
          10 569 hintmask 01110000
          10 -107 callgsubr
          229 -668 rlineto
          110 hlineto
          230 668 rlineto
          -103 hlineto
          hintmask 10110000
          -182 -558 -181 558 rlineto
          endchar
        </CharString>
        <CharString name="W">
          233 0 116 -95 -21 552 116 0 -20 hstemhm
          10 820 hintmask 01011000
          178 hmoveto
          113 hlineto
          hintmask 01101000
          129 552 129 -552 rlineto
          114 hlineto
          167 668 rlineto
          -103 hlineto
          hintmask 10011000
          -130 -552 -122 552 rlineto
          -110 hlineto
          -122 -552 -130 552 rlineto
          -103 hlineto
          endchar
        </CharString>
        <CharString name="X">
          16 21 -100 callgsubr
          hstem
          10 603 vstem
          10 hmoveto
          113 hlineto
          188 265 189 -265 rlineto
          113 hlineto
          -245 344 231 324 rlineto
          -113 hlineto
          -175 -245 -175 245 rlineto
          -112 hlineto
          231 -324 rlineto
          endchar
        </CharString>
        <CharString name="Y">
          28 callgsubr
          10 -107 callgsubr
          241 -409 rlineto
          -259 94 259 vlineto
          240 409 -80 callgsubr
          endchar
        </CharString>
        <CharString name="Yacute">
          28 callgsubr
          251 259 rmoveto
          -259 94 259 vlineto
          240 409 -80 callgsubr
          -103 hlineto
          248 76 rmoveto
          76 hlineto
          -94 callgsubr
        </CharString>
        <CharString name="Ydieresis">
          -12 21 -100 callgsubr
          92 107 hstemhm
          138 108 5 94 5 107 hintmask 11101000
          251 259 rmoveto
          -259 94 259 vlineto
          240 409 -80 callgsubr
          -103 hlineto
          hintmask 11110100
          182 72 rmoveto
          -71 callsubr
          211 hmoveto
          -83 callgsubr
        </CharString>
        <CharString name="Z">
          -84 callsubr
          hstem
          44 519 -36 callsubr
          endchar
        </CharString>
        <CharString name="Zacute">
          -84 callsubr
          76 -2 callgsubr
          270 663 -98 callgsubr
        </CharString>
        <CharString name="Zcaron">
          -84 callsubr
          73 -2 callgsubr
          98 780 -104 callsubr
        </CharString>
        <CharString name="Zdotaccent">
          -84 callsubr
          77 108 hstem
          250 108 -36 callsubr
          206 718 -93 callgsubr
        </CharString>
        <CharString name="a">
          -81 -12 44 callgsubr
          242 84 -77 77 hintmask 10111000
          -61 callsubr
          hintmask 01111000
          -99 callgsubr
          hintmask 10110100
          -91 77 -52 94 vhcurveto
          171 251 rmoveto
          -31 vlineto
          -70 callsubr
          endchar
        </CharString>
        <CharString name="aacute">
          -31 callgsubr
          93 2 rmoveto
          hintmask 10111010
          -89 callgsubr
          161 438 rmoveto
          -107 callsubr
        </CharString>
        <CharString name="abreve">
          -99 callsubr
          65 67 -75 callgsubr
          hintmask 01111100
          hintmask 01111010
          398 hmoveto
          77 hlineto
          -57 callgsubr
          hintmask 10111100
          39 callgsubr
          2 171 rmoveto
          -31 vlineto
          hintmask 10111010
          -70 callsubr
          -41 450 -95 callgsubr
        </CharString>
        <CharString name="acircumflex">
          -99 callsubr
          71 120 -75 callgsubr
          hintmask 10111100
          209 -12 rmoveto
          87 52 30 50 30 hvcurveto
          hintmask 01111100
          -99 callgsubr
          hintmask 10111010
          -74 callsubr
          -27 442 -98 callsubr
        </CharString>
        <CharString name="acute">
          6 callsubr
          123 571 rmoveto
          -107 callsubr
        </CharString>
        <CharString name="acute.case">
          -454 744 120 hstem
          44 172 vstem
          120 744 -98 callgsubr
        </CharString>
        <CharString name="adieresis">
          -99 callsubr
          86 107 hstemhm
          38 93 -26 -106 callgsubr
          -51 84 -77 77 hintmask 1011010100000000
          -61 callsubr
          hintmask 0111100100000000
          -99 callgsubr
          hintmask 1011100010000000
          -74 callsubr
          hintmask 1011011000000000
          -26 511 -9 callgsubr
        </CharString>
        <CharString name="ae">
          267 -12 66 -66 -38 callgsubr
          -68 68 hstemhm
          38 93 242 92 -85 83 294 88 hintmask 1011011010000000
          209 -12 rmoveto
          105 69 43 57 34 hvcurveto
          -61 40 68 -39 92 hhcurveto
          92 68 41 58 37 hvcurveto
          -81 24 rlineto
          hintmask 0111010110000000
          -30 -24 -37 -19 -55 hhcurveto
          -62 -87 38 125 -5 hvcurveto
          382 hlineto
          141 10 -82 138 -159 hhcurveto
          -73 -64 -29 -51 -44 hvcurveto
          54 -29 -57 26 -87 hhcurveto
          -82 -80 -43 -78 -28 hvcurveto
          81 -24 rlineto
          hintmask 1010111010000000
          48 11 39 29 60 hhcurveto
          125 -13 -116 -28 hvcurveto
          -188 -147 -42 -119 -91 77 -52 94 hvcurveto
          -78 145 rmoveto
          hintmask 1011010110000000
          68 97 24 152 vhcurveto
          -16 16 -155 -169 -60 -36 32 47 vhcurveto
          483 299 rmoveto
          88 53 -70 -70 2 hvcurveto
          hintmask 1011011010000000
          -292 hlineto
          100 7 67 40 75 hhcurveto
          endchar
        </CharString>
        <CharString name="agrave">
          -31 callgsubr
          hintmask 10111010
          342 108 rmoveto
          -31 vlineto
          -70 callsubr
          -241 430 -21 callsubr
        </CharString>
        <CharString name="amacron">
          -99 callsubr
          97 67 hstemhm
          38 93 -4 276 -30 84 -77 77 hintmask 10111010
          -81 callgsubr
          hintmask 01111010
          -99 callgsubr
          93 2 rmoveto
          hintmask 10111001
          -89 callgsubr
          hintmask 10110100
          -4 535 59 callgsubr
        </CharString>
        <CharString name="ampersand">
          98 -12 74 -41 -21 606 74 hstemhm
          38 90 7 90 184 82 30 87 hintmask 10111110
          38 183 rmoveto
          -110 86 -85 139 96 77 38 61 58 vhcurveto
          hintmask 01111110
          82 -87 rlineto
          119 hlineto
          -149 157 36 60 20 72 6 72 rlinecurve
          -87 hlineto
          -4 -54 -13 -47 -17 -41 -136 144 rcurveline
          82 34 58 55 84 vvcurveto
          108 -92 36 -82 -106 -76 -55 -87 -52 29 -48 45 -51 vhcurveto
          -103 -35 -68 -67 -102 vvcurveto
          90 4 rmoveto
          74 51 45 80 28 vhcurveto
          181 -191 rlineto
          hintmask 10111110
          -52 -46 -61 -29 -70 hhcurveto
          -71 -64 48 77 hvcurveto
          97 353 rmoveto
          45 45 21 49 49 41 -21 -54 -53 -44 -39 -65 -24 vhcurveto
          -11 13 -64 57 55 vvcurveto
          endchar
        </CharString>
        <CharString name="aogonek">
          -81 -173 58 103 44 callgsubr
          187 70 -15 84 -77 77 hintmask 11011010
          -81 callgsubr
          hintmask 10111010
          20 -68 rlineto
          hintmask 11011100
          -49 -12 -31 -38 -41 vvcurveto
          -91 callsubr
          27 hvcurveto
          hintmask 10111010
          -55 callsubr
          vhcurveto
          -57 callgsubr
          93 2 rmoveto
          hintmask 11011001
          -89 callgsubr
          endchar
        </CharString>
        <CharString name="approxequal">
          -26 97 73 -19 74 58 73 -19 74 hstemhm
          53 475 hintmask 01011000
          53 309 rmoveto
          75 -22 rlineto
          33 6 25 17 33 60 68 -54 72 hhcurveto
          hintmask 01101000
          23 callsubr
          -33 -7 -25 -18 -30 -52 -65 55 -83 hhcurveto
          hintmask 01011000
          -73 -50 -41 -61 -16 hvcurveto
          -186 vmoveto
          75 -22 rlineto
          33 6 25 17 33 60 68 -54 72 hhcurveto
          hintmask 10011000
          -10 callsubr
          hintmask 01011000
          33 callsubr
        </CharString>
        <CharString name="aring">
          -99 callsubr
          55 58 102 58 hstemhm
          38 93 25 57 104 57 -1 84 -77 77 hintmask 1011111010000000
          -81 callgsubr
          hintmask 0111111010000000
          -99 callgsubr
          229 428 rmoveto
          hintmask 1011111101000000
          -51 callgsubr
          -136 -426 rmoveto
          -89 callgsubr
          82 535 -13 callsubr
        </CharString>
        <CharString name="asciicircum">
          -55 569 99 0 -20 hstemhm
          53 446 hintmask 01100000
          53 311 rmoveto
          89 hlineto
          hintmask 10100000
          134 258 134 -258 rlineto
          89 hlineto
          -185 357 rlineto
          -76 hlineto
          endchar
        </CharString>
        <CharString name="asciitilde">
          -52 195 73 -19 74 hstemhm
          40 475 hintmask 01100000
          115 199 rmoveto
          33 6 25 17 33 60 68 -54 72 hhcurveto
          hintmask 10100000
          -10 callsubr
          hintmask 01100000
          33 callsubr
        </CharString>
        <CharString name="asterisk">
          -174 -95 callsubr
          187 57 vstem
          107 422 rmoveto
          46 -34 62 86 63 -86 46 34 -63 86 102 32 -18 55 -101 -33 rlineto
          106 -57 -106 vlineto
          -101 33 -18 -55 101 -32 rlineto
          endchar
        </CharString>
        <CharString name="at">
          173 -12 61 106 74 216 74 -20 -20 139 62 hstemhm
          50 62 106 84 149 81 136 62 hintmask 1101111110000000
          398 -12 rmoveto
          45 46 9 19 43 hvcurveto
          69 vlineto
          -24 -43 -47 -12 -46 hhcurveto
          -146 -138 116 170 157 128 126 156 151 121 -116 -136 -57 -23 -80 -70 -24 -19 15 29 hvcurveto
          226 vlineto
          hintmask 1110111110000000
          12 -37 -42 8 -40 hhcurveto
          -100 -95 -49 -152 -107 68 -56 71 41 43 19 39 32 hvcurveto
          -35 13 43 -23 46 hhcurveto
          73 82 56 155 201 -183 113 -151 -191 -155 -155 -190 -208 171 -139 177 hvcurveto
          8 457 rmoveto
          16 15 -2 -2 14 hvcurveto
          -103 vlineto
          -72 -43 -37 -39 -35 -32 27 57 110 54 22 50 vhcurveto
          endchar
        </CharString>
        <CharString name="atilde">
          -99 callsubr
          71 63 -20 63 -75 callgsubr
          hintmask 10101110
          -61 callsubr
          hintmask 01101110
          -99 callgsubr
          hintmask 10101101
          -74 callsubr
          33 444 -86 callsubr
          hintmask 10110110
          -72 callsubr
          hintmask 10101110
          -48 callgsubr
        </CharString>
        <CharString name="b">
          -41 -12 72 -39 -101 callgsubr
          164 -20 hstemhm
          70 84 280 94 hintmask 01111100
          -53 callsubr
          62 vlineto
          22 75 rlineto
          hintmask 10111100
          -53 30 53 -34 78 hhcurveto
          113 100 94 164 163 -100 95 -113 -78 -53 -34 -52 -30 hvcurveto
          250 vlineto
          139 -236 7 callgsubr
        </CharString>
        <CharString name="backslash">
          2 callsubr
          275 hmoveto
          87 hlineto
          -260 668 rlineto
          -87 hlineto
          endchar
        </CharString>
        <CharString name="bar">
          11 callsubr
          -161 rmoveto
          81 829 -81 hlineto
          endchar
        </CharString>
        <CharString name="braceleft">
          24 callgsubr
          108 84 cntrmask 11100000
          108 125 rmoveto
          -150 vlineto
          -103 22 -33 112 vhcurveto
          43 71 -42 hlineto
          -44 -7 12 52 hvcurveto
          153 vlineto
          85 -31 28 -48 13 vhcurveto
          48 13 31 30 84 vvcurveto
          153 vlineto
          51 7 13 44 vhcurveto
          42 71 -43 hlineto
          -112 -22 -33 -103 hvcurveto
          -150 vlineto
          -57 -8 -38 -62 vhcurveto
          -67 vlineto
          62 8 -38 -57 hvcurveto
          endchar
        </CharString>
        <CharString name="braceright">
          24 callgsubr
          127 84 cntrmask 11100000
          77 -161 rmoveto
          112 22 33 103 hvcurveto
          150 vlineto
          57 8 38 62 vhcurveto
          67 vlineto
          -62 -8 38 57 hvcurveto
          150 vlineto
          103 -22 33 -112 vhcurveto
          -43 -71 41 hlineto
          45 7 -13 -51 hvcurveto
          -153 vlineto
          -84 31 -30 47 -13 vhcurveto
          -47 -13 -31 -28 -85 vvcurveto
          -153 vlineto
          -52 -7 -12 -45 vhcurveto
          -41 -71 hlineto
          endchar
        </CharString>
        <CharString name="bracketleft">
          45 callgsubr
          76 81 vstem
          76 -107 callgsubr
          -829 206 74 -125 681 125 74 vlineto
          endchar
        </CharString>
        <CharString name="bracketright">
          45 callgsubr
          158 81 vstem
          158 594 rmoveto
          -681 -125 -74 206 829 -206 -74 vlineto
          endchar
        </CharString>
        <CharString name="breve">
          -208 569 67 hstem
          53 294 vstem
          278 689 -95 callgsubr
        </CharString>
        <CharString name="breve.case">
          741 67 hstem
          16 294 vstem
          241 861 -95 callgsubr
        </CharString>
        <CharString name="brokenbar">
          11 callsubr
          358 rmoveto
          81 310 -81 hlineto
          81 -829 rmoveto
          310 -81 -310 vlineto
          endchar
        </CharString>
        <CharString name="bullet">
          -169 88 332 hstem
          53 332 vstem
          53 254 rmoveto
          -91 74 -75 92 92 74 75 91 92 -74 74 -92 -92 -74 -74 -92 vhcurveto
          endchar
        </CharString>
        <CharString name="c">
          -69 callgsubr
          hstem
          38 91 vstem
          269 -12 rmoveto
          88 73 47 64 37 hvcurveto
          -29 callsubr
          -150 89 -108 142 hvcurveto
          endchar
        </CharString>
        <CharString name="cacute">
          -69 callgsubr
          -23 callgsubr
          196 325 rmoveto
          70 hlineto
          -107 callsubr
        </CharString>
        <CharString name="caron">
          -178 569 -106 callsubr
          53 323 vstem
          165 588 -105 callgsubr
        </CharString>
        <CharString name="caron.case">
          741 -106 callsubr
          1 323 vstem
          113 760 -105 callgsubr
        </CharString>
        <CharString name="caron.salt">
          -401 678 -20 hstem
          53 100 vstem
          102 495 -73 callsubr
        </CharString>
        <CharString name="ccaron">
          -69 callgsubr
          65 120 -23 callgsubr
          189 342 -105 callgsubr
        </CharString>
        <CharString name="ccedilla">
          -95 -181 41 59 40 53 -21 439 74 hstem
          50 91 160 62 vstem
          50 246 rmoveto
          -135 72 -101 117 -19 vhcurveto
          -30 -48 -23 callsubr
          -14 -35 rlineto
          -53 callgsubr
          21 33 86 1 72 47 36 63 rlinecurve
          -30 callsubr
          endchar
        </CharString>
        <CharString name="cdotaccent">
          -69 callgsubr
          86 108 hstem
          38 91 94 108 vstem
          -81 callsubr
          -150 89 -108 142 88 73 47 64 37 vhcurveto
          -30 callsubr
          239 344 -52 callgsubr
        </CharString>
        <CharString name="cedilla">
          -316 -181 41 59 40 hstem
          196 62 vstem
          73 -161 -78 callsubr
        </CharString>
        <CharString name="cent">
          -107 -12 74 -53 -21 23 -21 440 74 -3 -20 23 -20 hstemhm
          38 91 107 50 hintmask 01101111
          38 247 rmoveto
          -139 75 -102 123 -16 vhcurveto
          -77 50 75 vlineto
          81 6 66 45 34 60 -77 28 rcurveline
          hintmask 10010011
          -20 -34 -36 -26 -48 -5 rrcurveto
          368 vlineto
          45 -5 37 -24 20 -36 77 28 rcurveline
          hintmask 01101111
          -31 58 -62 50 -86 3 rrcurveto
          67 -50 -70 vlineto
          -122 -19 -76 -102 -133 vvcurveto
          91 1 rmoveto
          104 48 57 59 16 vhcurveto
          -358 vlineto
          -59 17 -48 59 105 vvcurveto
          endchar
        </CharString>
        <CharString name="circumflex">
          -178 575 -106 callsubr
          53 323 vstem
          53 575 -98 callsubr
        </CharString>
        <CharString name="circumflex.case">
          747 -106 callsubr
          1 323 vstem
          1 747 -98 callsubr
        </CharString>
        <CharString name="colon">
          -402 -12 129 258 129 -67 callgsubr
          38 52 rmoveto
          -35 29 -29 35 -63 callsubr
          vhcurveto
          64 323 11 callgsubr
        </CharString>
        <CharString name="comma">
          -402 10 -21 -67 callgsubr
          92 -11 rmoveto
          -47 -122 rlineto
          55 hlineto
          62 161 -87 callsubr
          -29 30 -66 callgsubr
          -35 -32 23 -27 31 -5 vhcurveto
          endchar
        </CharString>
        <CharString name="copyright">
          191 -12 62 100 59 264 58 87 62 hstem
          53 62 112 76 380 62 vstem
          53 334 rmoveto
          -191 155 -155 191 191 155 155 191 191 1 callsubr
          -191 vhcurveto
          62 hmoveto
          157 127 127 157 157 127 -127 -54 callsubr
          -127 -54 callsubr
          127 157 vhcurveto
          286 -184 rmoveto
          74 49 35 45 26 hvcurveto
          -66 24 rlineto
          -33 -18 -32 -12 -33 hhcurveto
          -57 -41 43 90 89 41 42 57 34 29 -17 -32 17 hvcurveto
          67 25 rlineto
          48 -25 -48 34 -72 hhcurveto
          -108 -68 -71 -118 -119 62 -73 112 hvcurveto
          endchar
        </CharString>
        <CharString name="currency">
          -27 103 75 285 76 hstem
          72 76 284 76 vstem
          119 456 rmoveto
          -31 -39 -16 -48 -48 vvcurveto
          -48 16 -48 31 -40 vhcurveto
          -66 -66 36 -35 66 65 rlineto
          -31 40 47 -15 48 hhcurveto
          48 48 15 31 39 hvcurveto
          66 -65 36 35 -66 66 rlineto
          32 40 15 48 48 vvcurveto
          48 -15 48 -32 39 vhcurveto
          66 66 -36 36 -66 -66 rlineto
          32 -39 -48 15 -48 hhcurveto
          -48 -47 -15 -32 -40 hvcurveto
          -66 66 -36 -36 rlineto
          237 -59 rmoveto
          79 63 -64 -78 -79 -63 -64 -79 -79 -63 64 79 78 63 64 79 hvcurveto
          endchar
        </CharString>
        <CharString name="d">
          -43 -12 72 -39 -101 callgsubr
          164 -20 hstemhm
          38 94 280 84 hintmask 10111100
          251 -12 rmoveto
          78 53 34 53 30 hvcurveto
          hintmask 01111100
          22 -75 rlineto
          29 callsubr
          481 -84 -250 vlineto
          52 -30 -53 34 -78 hhcurveto
          -113 -100 -95 -163 hvcurveto
          hintmask 10111100
          -164 100 -94 113 vhcurveto
          22 444 7 callgsubr
        </CharString>
        <CharString name="dagger">
          -66 21 -21 416 15 callsubr
          496 rmoveto
          -80 190 -416 81 416 190 80 -190 172 -81 -172 vlineto
          endchar
        </CharString>
        <CharString name="daggerdbl">
          -66 21 -21 172 79 165 15 callsubr
          251 rmoveto
          -79 190 -172 81 172 190 79 -190 165 190 80 -190 172 -81 -172 -190 -80 190 -165 vlineto
          endchar
        </CharString>
        <CharString name="dcaron">
          -10 -12 72 -39 -101 callgsubr
          -8 172 11 -20 hstemhm
          38 94 280 84 hintmask 01011110
          hintmask 01101110
          434 hmoveto
          79 hlineto
          -17 87 0 67 33 vvcurveto
          481 -84 -250 vlineto
          hintmask 10101110
          23 callgsubr
          -164 100 -94 113 61 callgsubr
          hvcurveto
          -139 -15 rmoveto
          -85 28 callsubr
          85 85 56 -68 -118 -118 -56 -68 -85 hvcurveto
          hintmask 10011110
          313 436 -73 callsubr
        </CharString>
        <CharString name="dcroat">
          -4 -12 72 -39 18 callsubr
          38 94 280 84 hintmask 10110110
          -81 callsubr
          -164 100 -94 113 61 callgsubr
          vhcurveto
          hintmask 01110110
          22 -75 rlineto
          29 callsubr
          361 82 67 -82 vlineto
          hintmask 10101110
          53 -84 vlineto
          hintmask 10110110
          -53 -163 -67 163 -130 vlineto
          23 callgsubr
          hvcurveto
          94 hmoveto
          118 56 68 85 -62 callsubr
          -85 -56 68 118 vhcurveto
          endchar
        </CharString>
        <CharString name="degree">
          -255 408 63 146 63 hstem
          40 63 146 63 vstem
          40 544 rmoveto
          -75 61 -61 75 75 61 61 75 75 -61 61 -75 -75 -61 -61 -75 vhcurveto
          63 hmoveto
          41 33 32 40 41 32 -32 -41 -40 -32 -33 -41 -40 -33 33 40 vhcurveto
          endchar
        </CharString>
        <CharString name="dieresis">
          -182 590 107 hstem
          53 108 104 107 vstem
          53 644 -93 callsubr
        </CharString>
        <CharString name="dieresis.case">
          740 107 hstem
          3 -106 callgsubr
          vstem
          3 794 -93 callsubr
        </CharString>
        <CharString name="divide">
          -5 14 129 65 81 65 129 hstem
          236 129 cntrmask 11100000
          53 289 rmoveto
          -81 496 81 vlineto
          -248 65 rmoveto
          36 28 28 36 36 -28 29 -36 -36 -29 -29 -36 -36 29 -28 36 hvcurveto
          -340 vmoveto
          36 28 29 36 35 -28 29 -36 -36 -29 -29 -35 -36 29 -29 36 hvcurveto
          endchar
        </CharString>
        <CharString name="dollar">
          -13 -12 80 532 79 0 -20 hstemhm
          47 96 124 50 140 97 hintmask 10111100
          267 -11 rmoveto
          -76 50 75 vlineto
          126 6 111 69 125 vvcurveto
          135 -123 34 -102 26 vhcurveto
          -12 3 rlineto
          213 vlineto
          47 -6 47 -20 26 -43 86 25 rcurveline
          -38 79 -79 38 -89 7 rrcurveto
          63 -50 -63 vlineto
          -103 -7 -117 -56 -118 vvcurveto
          -112 92 -53 92 -18 vhcurveto
          36 -7 rlineto
          -239 vlineto
          -70 9 -47 34 -23 60 -87 -26 rcurveline
          33 -89 79 -58 115 -10 rrcurveto
          50 79 rmoveto
          229 vlineto
          82 -19 58 -29 -69 vvcurveto
          -62 -51 -45 -89 -5 vhcurveto
          -174 435 rmoveto
          hintmask 11011100
          67 72 25 52 5 vhcurveto
          -202 vlineto
          -15 3 rlineto
          -62 12 -47 31 59 vvcurveto
          endchar
        </CharString>
        <CharString name="dotaccent">
          -393 590 108 hstem
          53 108 vstem
          53 644 -93 callgsubr
        </CharString>
        <CharString name="dotaccent.case">
          762 108 hstem
          109 108 vstem
          109 816 -93 callgsubr
        </CharString>
        <CharString name="dotlessi">
          -329 21 -21 429 17 callgsubr
          endchar
        </CharString>
        <CharString name="e">
          -97 callgsubr
          hstem
          38 90 293 -27 callgsubr
          endchar
        </CharString>
        <CharString name="eacute">
          -30 callgsubr
          -112 279 rmoveto
          -107 callsubr
        </CharString>
        <CharString name="ecaron">
          -97 callgsubr
          65 -106 callsubr
          38 90 293 89 vstem
          38 247 rmoveto
          -146 87 -113 156 93 68 41 58 36 vhcurveto
          -81 24 rlineto
          -16 callgsubr
          -161 257 -104 callsubr
        </CharString>
        <CharString name="ecircumflex">
          -97 callgsubr
          71 120 -28 callgsubr
          -218 283 -97 callsubr
        </CharString>
        <CharString name="edieresis">
          -97 callgsubr
          86 107 hstemhm
          38 90 -17 -106 callgsubr
          -9 89 hintmask 11111001
          -37 callsubr
          -2 444 rmoveto
          88 53 -70 -70 1 hvcurveto
          -292 hlineto
          100 8 67 40 75 hhcurveto
          -114 158 rmoveto
          hintmask 11110110
          -27 callsubr
        </CharString>
        <CharString name="edotaccent">
          -97 callgsubr
          86 108 hstem
          38 90 97 108 88 -27 callgsubr
          158 vmoveto
          13 callgsubr
        </CharString>
        <CharString name="egrave">
          -30 callgsubr
          -274 377 -21 callsubr
        </CharString>
        <CharString name="eight">
          8 -12 74 255 -102 callgsubr
          hstemhm
          60 10 callsubr
          60 -32 callgsubr
        </CharString>
        <CharString name="eight.tf">
          32 -12 74 255 -102 callgsubr
          hstemhm
          72 10 callsubr
          72 -32 callgsubr
        </CharString>
        <CharString name="ellipsis">
          89 -12 129 hstem
          53 129 102 129 101 129 vstem
          284 52 rmoveto
          -35 28 -29 36 31 callsubr
          -36 -28 -29 -36 vhcurveto
          230 hmoveto
          -35 29 -29 36 35 29 29 35 36 -29 29 -35 -36 -29 -29 -36 vhcurveto
          -397 -64 -68 callsubr
        </CharString>
        <CharString name="emacron">
          -97 callgsubr
          97 67 hstem
          38 90 13 276 4 -26 callgsubr
          -280 376 59 callgsubr
        </CharString>
        <CharString name="emdash">
          193 208 79 hstem
          41 718 vstem
          41 208 rmoveto
          718 79 -718 hlineto
          endchar
        </CharString>
        <CharString name="endash">
          -127 208 79 hstem
          41 398 vstem
          41 208 rmoveto
          398 79 -398 hlineto
          endchar
        </CharString>
        <CharString name="eogonek">
          -68 -173 58 103 -38 callgsubr
          hstem
          38 90 126 70 97 89 vstem
          38 247 rmoveto
          -150 91 -110 155 1 vhcurveto
          -18 -19 -12 -24 -30 vvcurveto
          -49 -46 callgsubr
          32 30 24 26 43 25 hvcurveto
          38 18 29 26 20 32 -81 24 rcurveline
          -16 callgsubr
          endchar
        </CharString>
        <CharString name="equal">
          -5 121 79 107 79 hstem
          53 496 vstem
          53 307 rmoveto
          496 79 -496 hlineto
          496 -265 rmoveto
          79 -496 -79 vlineto
          endchar
        </CharString>
        <CharString name="estimated">
          15 -12 32 228 31 193 32 hstem
          53 106 304 106 vstem
          311 -12 rmoveto
          83 73 39 60 47 hvcurveto
          -33 10 rlineto
          -47 -41 -61 -30 -68 hhcurveto
          -59 -53 22 36 -40 hvcurveto
          170 410 vlineto
          141 -1 -115 115 -142 hhcurveto
          -154 -104 -130 -118 -177 136 -91 122 hvcurveto
          484 vmoveto
          58 54 -22 -37 40 hvcurveto
          -134 -304 134 vlineto
          37 40 53 22 59 hhcurveto
          endchar
        </CharString>
        <CharString name="eth">
          -40 -12 71 312 74 157 77 hstem
          38 90 291 98 vstem
          38 218 rmoveto
          -124 92 -106 143 190 54 154 161 118 -33 119 -71 64 vhcurveto
          40 40 -36 36 -46 -46 rlineto
          33 -55 -67 12 -74 hhcurveto
          -77 vlineto
          56 46 -7 -19 36 hvcurveto
          -66 -66 36 -36 73 73 42 -41 26 -62 6 -92 rlinecurve
          53 -31 -57 40 -88 hhcurveto
          -125 -91 -93 -134 hvcurveto
          235 153 rmoveto
          89 57 -64 -92 -92 -57 -64 -89 -88 -57 64 92 92 57 64 88 hvcurveto
          endchar
        </CharString>
        <CharString name="exclam">
          -326 -12 129 551 -20 hstemhm
          76 129 -109 89 hintmask 11010000
          96 668 rmoveto
          -172 vlineto
          18 -301 rlineto
          53 hlineto
          18 301 rlineto
          172 vlineto
          hintmask 11100000
          -45 -680 -68 callsubr
        </CharString>
        <CharString name="exclamdown">
          -326 390 129 hstemhm
          76 129 -109 89 hintmask 10100000
          185 -161 rmoveto
          172 vlineto
          -18 300 rlineto
          -53 hlineto
          -18 -300 rlineto
          -172 vlineto
          hintmask 11000000
          44 551 -68 callsubr
        </CharString>
        <CharString name="f">
          -296 21 -21 429 67 139 71 hstem
          99 84 vstem
          15 429 rmoveto
          84 -429 84 429 103 67 -103 75 hlineto
          51 8 13 43 vhcurveto
          52 71 -54 hlineto
          -111 -22 -34 -102 hvcurveto
          -74 -84 vlineto
          endchar
        </CharString>
        <CharString name="five">
          -24 -12 70 320 72 137 81 hstem
          433 88 vstem
          54 151 rmoveto
          -90 25 70 -73 135 hhcurveto
          124 113 79 153 147 -102 83 -117 -55 -54 -16 -34 -35 hvcurveto
          23 187 rlineto
          315 81 -383 hlineto
          -41 -340 82 -24 rlineto
          33 14 46 41 69 hhcurveto
          72 78 -48 -111 -103 -69 -58 -80 -87 -45 44 73 -16 hvcurveto
          endchar
        </CharString>
        <CharString name="five.tf">
          32 -12 70 320 72 137 81 hstem
          465 88 vstem
          86 151 rmoveto
          -90 25 70 -73 135 hhcurveto
          124 113 79 153 147 -102 83 -117 -55 -54 -16 -34 -35 hvcurveto
          23 187 rlineto
          315 81 -383 hlineto
          -41 -340 82 -24 rlineto
          33 14 46 41 69 hhcurveto
          72 78 -48 -111 -103 -69 -58 -80 -87 -45 44 73 -16 hvcurveto
          endchar
        </CharString>
        <CharString name="florin">
          -286 -173 80 522 67 139 71 hstem
          109 84 vstem
          25 -90 rmoveto
          -75 vlineto
          -5 18 18 -3 19 hhcurveto
          58 55 32 114 hvcurveto
          456 103 67 -103 75 vlineto
          51 8 13 43 vhcurveto
          52 71 -54 hlineto
          -111 -22 -34 -102 hvcurveto
          -74 -84 -67 84 -453 vlineto
          -42 -16 -27 -42 -8 -8 1 2 -10 vhcurveto
          endchar
        </CharString>
        <CharString name="four">
          7 26 callsubr
          370 84 vstem
          38 165 rmoveto
          332 -165 84 165 122 79 -122 424 -85 hlineto
          -331 -424 rlineto
          91 hmoveto
          241 309 rlineto
          -309 vlineto
          endchar
        </CharString>
        <CharString name="four.tf">
          32 26 callsubr
          383 84 vstem
          51 165 rmoveto
          332 -165 84 165 122 79 -122 424 -85 hlineto
          -331 -424 rlineto
          91 hmoveto
          241 309 rlineto
          -309 vlineto
          endchar
        </CharString>
        <CharString name="fraction">
          -21 21 -100 callgsubr
          hstem
          15 556 vstem
          15 hmoveto
          88 hlineto
          468 -83 callsubr
          endchar
        </CharString>
        <CharString name="g">
          -89 callsubr
          hstemhm
          38 91 277 84 hintmask 11011100
          -22 callgsubr
          hintmask 11101100
          -32 callsubr
          endchar
        </CharString>
        <CharString name="gbreve">
          -89 callsubr
          93 67 hstemhm
          38 91 277 84 hintmask 11011110
          81 -76 rmoveto
          -58 callgsubr
          hintmask 11101110
          -44 callsubr
          78 610 -95 callgsubr
        </CharString>
        <CharString name="gdotaccent">
          -89 callsubr
          115 108 hstemhm
          38 91 91 108 78 84 hintmask 11011111
          -22 callgsubr
          hintmask 11101111
          -32 callsubr
          -49 213 -93 callgsubr
        </CharString>
        <CharString name="germandbls">
          -10 -12 74 -41 -21 330 76 205 69 hstemhm
          76 84 275 85 -51 90 hintmask 10111010
          76 453 rmoveto
          hintmask 01111100
          -453 84 453 vlineto
          115 46 43 105 74 50 -41 -59 -67 -56 -38 -100 vhcurveto
          -76 vlineto
          hintmask 10111010
          114 76 -34 -101 -89 -61 -44 -90 -12 -13 1 2 -14 hvcurveto
          23 -77 rlineto
          133 -4 124 56 157 vvcurveto
          108 -61 51 -78 20 vhcurveto
          hintmask 10111100
          69 29 31 49 67 vvcurveto
          97 -89 62 -119 vhcurveto
          hintmask 10111010
          -212 -24 -132 -95 hvcurveto
          endchar
        </CharString>
        <CharString name="grave">
          6 callsubr
          70 636 -20 callsubr
        </CharString>
        <CharString name="grave.case">
          -404 744 120 hstem
          -20 173 vstem
          -4 796 -60 callgsubr
        </CharString>
        <CharString name="greater">
          8 callsubr
          408 248 rmoveto
          -368 -158 rlineto
          -90 vlineto
          473 213 rlineto
          70 vlineto
          -473 213 rlineto
          -90 vlineto
          endchar
        </CharString>
        <CharString name="greaterequal">
          32 callgsubr
          421 302 rmoveto
          -368 -112 rlineto
          -90 vlineto
          473 167 rlineto
          70 vlineto
          -473 168 rlineto
          -91 vlineto
          -414 vmoveto
          473 80 -473 hlineto
          endchar
        </CharString>
        <CharString name="guillemotleft">
          25 callsubr
          262 251 rmoveto
          147 -211 rlineto
          100 hlineto
          -150 211 150 210 rlineto
          -100 hlineto
          -208 -421 rmoveto
          99 hlineto
          -149 211 149 210 rlineto
          -99 hlineto
          -148 -210 rlineto
          endchar
        </CharString>
        <CharString name="guillemotright">
          25 callsubr
          202 251 rmoveto
          -149 -211 rlineto
          100 hlineto
          147 211 -147 210 rlineto
          -100 hlineto
          358 -210 rmoveto
          -149 -211 rlineto
          99 hlineto
          148 211 -148 210 rlineto
          -99 hlineto
          endchar
        </CharString>
        <CharString name="guilsinglleft">
          17 callsubr
          201 40 rmoveto
          99 hlineto
          -149 210 149 211 rlineto
          -99 hlineto
          -148 -211 rlineto
          endchar
        </CharString>
        <CharString name="guilsinglright">
          17 callsubr
          53 40 rmoveto
          100 hlineto
          147 210 -147 211 rlineto
          -100 hlineto
          149 -211 rlineto
          endchar
        </CharString>
        <CharString name="h">
          -61 21 -101 callgsubr
          164 -20 hstem
          70 84 240 84 vstem
          -53 callsubr
          84 269 vlineto
          106 50 57 81 96 13 -67 -76 vhcurveto
          -289 84 314 vlineto
          113 -44 77 -120 -84 -48 -36 -47 -28 vhcurveto
          247 vlineto
          endchar
        </CharString>
        <CharString name="hbar">
          -26 21 18 callsubr
          105 84 240 84 hintmask 11101100
          189 615 rmoveto
          hintmask 11011100
          53 -84 vlineto
          hintmask 11101100
          -53 -85 -67 85 -548 84 269 vlineto
          -92 callsubr
          127 160 67 vlineto
          endchar
        </CharString>
        <CharString name="hungarumlaut">
          -193 572 136 hstem
          53 308 vstem
          123 572 -38 callsubr
        </CharString>
        <CharString name="hungarumlaut.case">
          744 136 hstem
          9 308 vstem
          79 744 -38 callsubr
        </CharString>
        <CharString name="hyphen">
          -239 208 81 hstem
          38 292 vstem
          38 208 rmoveto
          292 81 -292 hlineto
          endchar
        </CharString>
        <CharString name="i">
          -329 21 32 callsubr
          94 125 -105 84 hintmask 11101000
          45 496 rmoveto
          -67 69 -50 callsubr
          vlineto
          hintmask 11110000
          -42 94 rmoveto
          35 -39 callgsubr
          -35 -34 -28 -28 -34 -35 28 -28 34 hvcurveto
          endchar
        </CharString>
        <CharString name="iacute">
          -96 callsubr
          74 136 -8 callsubr
          139 74 rmoveto
          -107 callsubr
        </CharString>
        <CharString name="icircumflex">
          -96 callsubr
          79 120 -8 callsubr
          36 79 -97 callsubr
        </CharString>
        <CharString name="idieresis">
          -96 callsubr
          88 107 hstemhm
          -21 108 27 84 -7 107 hintmask 11101000
          45 496 rmoveto
          -67 69 -50 callsubr
          vlineto
          hintmask 11110100
          -219 142 -9 callgsubr
        </CharString>
        <CharString name="igrave">
          -96 callsubr
          75 136 hstem
          114 84 vstem
          114 429 rmoveto
          -429 84 496 -153 -67 vlineto
          207 vmoveto
          -1 callgsubr
        </CharString>
        <CharString name="imacron">
          -96 callsubr
          105 17 callgsubr
          -100 172 rmoveto
          276 67 -276 hlineto
          endchar
        </CharString>
        <CharString name="infinity">
          166 104 76 150 76 hstem
          53 81 505 81 vstem
          53 256 rmoveto
          -89 65 -63 95 74 54 44 50 46 vhcurveto
          -50 45 54 -44 74 hhcurveto
          95 65 63 89 87 -67 63 -99 -72 -53 -42 -47 -42 hvcurveto
          47 -43 -53 42 -72 hhcurveto
          -99 -67 -63 -87 hvcurveto
          81 hmoveto
          45 37 29 49 49 34 -31 -43 36 vhcurveto
          -56 -46 -33 -20 -43 hhcurveto
          -48 -35 34 42 hvcurveto
          301 hmoveto
          43 36 34 31 48 hhcurveto
          49 37 -29 -45 -42 -35 -34 -48 -43 -32 20 56 -46 hvcurveto
          endchar
        </CharString>
        <CharString name="integral">
          -149 -173 46 762 46 hstem
          53 99 35 84 34 100 vstem
          53 -111 rmoveto
          -47 41 -15 44 60 73 31 186 vhcurveto
          494 vlineto
          102 37 -5 0 vhcurveto
          -2 -5 -1 -6 -5 vvcurveto
          -26 21 -24 29 28 22 22 28 47 -41 15 -44 -60 -73 -32 -185 vhcurveto
          -495 vlineto
          -101 -37 5 0 vhcurveto
          2 5 0 5 5 vvcurveto
          27 -20 24 -29 -28 -22 -23 -27 vhcurveto
          endchar
        </CharString>
        <CharString name="iogonek">
          -329 -173 58 136 32 callsubr
          35 70 -11 125 -105 84 hintmask 11110010
          hintmask 11111010
          129 -173 rmoveto
          19 21 4 8 23 hvcurveto
          54 vlineto
          -6 -13 -13 -2 -12 hhcurveto
          -28 -21 13 27 -55 callsubr
          hvcurveto
          6 hlineto
          hintmask 11110010
          496 -153 -67 69 -429 1 vlineto
          hintmask 11111010
          -49 -12 -31 -38 -41 vvcurveto
          -43 34 -39 60 vhcurveto
          hintmask 11110100
          -35 826 rmoveto
          -35 28 -28 34 35 -39 callgsubr
          -35 -34 -28 -28 -34 vhcurveto
          endchar
        </CharString>
        <CharString name="j">
          -353 -161 74 583 -20 114 125 hstemhm
          69 125 -104 84 hintmask 11101000
          -58 -86 rmoveto
          -73 vlineto
          -1 20 18 -1 17 hhcurveto
          137 40 40 128 hvcurveto
          489 -84 -484 vlineto
          -84 -17 -15 -84 -14 -15 0 1 -18 vhcurveto
          hintmask 11110000
          190 676 rmoveto
          34 -39 callgsubr
          -34 -35 -28 -28 -34 -35 28 -28 35 hvcurveto
          endchar
        </CharString>
        <CharString name="k">
          -117 21 40 callgsubr
          vstem
          -53 callsubr
          84 166 vlineto
          58 63 165 -229 rlineto
          103 hlineto
          -212 291 187 205 rlineto
          -101 hlineto
          -200 -223 rlineto
          395 vlineto
          endchar
        </CharString>
        <CharString name="l">
          -368 0 74 593 -20 hstem
          70 84 vstem
          70 124 rmoveto
          -103 22 -21 95 vhcurveto
          37 74 -19 hlineto
          -47 -4 13 51 hvcurveto
          529 -84 vlineto
          endchar
        </CharString>
        <CharString name="lcaron">
          -350 0 74 422 171 12 -20 hstemhm
          70 84 hintmask 10110000
          224 hmoveto
          74 -19 vlineto
          35 callsubr
          hintmask 11010000
          31 callgsubr
          58 496 rmoveto
          hintmask 10110000
          -50 callgsubr
          hintmask 11010000
          -43 callgsubr
        </CharString>
        <CharString name="less">
          8 callsubr
          40 283 rmoveto
          -70 vlineto
          473 -213 rlineto
          90 vlineto
          -368 158 368 158 rlineto
          90 vlineto
          endchar
        </CharString>
        <CharString name="lessequal">
          32 callgsubr
          53 337 rmoveto
          -70 vlineto
          473 -167 rlineto
          90 vlineto
          -368 112 368 112 rlineto
          91 vlineto
          -505 vmoveto
          80 -473 -80 vlineto
          endchar
        </CharString>
        <CharString name="logicalnot">
          -5 317 79 hstem
          468 81 vstem
          53 317 rmoveto
          415 -227 81 306 -496 hlineto
          endchar
        </CharString>
        <CharString name="lozenge">
          -46 -73 776 hstem
          53 455 vstem
          281 -73 rmoveto
          227 388 -227 388 -228 -388 rlineto
          228 -239 rmoveto
          -141 239 141 239 140 -239 rlineto
          endchar
        </CharString>
        <CharString name="lslash">
          -370 0 74 594 -20 hstem
          68 84 vstem
          15 242 rmoveto
          53 31 rlineto
          -149 vlineto
          -102 22 -22 96 vhcurveto
          36 74 -18 hlineto
          -48 -4 13 52 hvcurveto
          184 vlineto
          70 42 rlineto
          71 vlineto
          -70 -42 rlineto
          274 -84 -324 vlineto
          -53 -32 rlineto
          endchar
        </CharString>
        <CharString name="m">
          234 38 callgsubr
          226 84 225 84 hintmask 11011100
          hintmask 10111100
          70 496 rmoveto
          -496 84 269 vlineto
          hintmask 11011100
          106 48 57 72 91 15 -67 -76 vhcurveto
          -289 84 269 vlineto
          106 47 57 72 92 14 7 callsubr
          -45 77 -115 -69 -58 -26 -61 -40 vhcurveto
          54 -22 -45 33 -76 hhcurveto
          -74 -47 -36 -47 -28 hvcurveto
          -51 callsubr
          endchar
        </CharString>
        <CharString name="macron">
          9 callgsubr
        </CharString>
        <CharString name="macron.case">
          762 67 hstem
          25 276 vstem
          25 762 -3 callsubr
        </CharString>
        <CharString name="minus">
          -5 209 79 hstem
          53 496 vstem
          53 209 rmoveto
          496 79 -496 hlineto
          endchar
        </CharString>
        <CharString name="multiply">
          -79 39 423 hstem
          53 422 vstem
          53 404 rmoveto
          154 -154 -154 -153 57 -58 154 154 154 -154 57 58 -153 153 153 154 -57 58 -154 -154 -154 154 rlineto
          endchar
        </CharString>
        <CharString name="n">
          -61 38 callgsubr
          240 84 hintmask 11011000
          hintmask 10111000
          13 callsubr
          hintmask 11011000
          -92 callsubr
          hintmask 10111000
          -22 75 rlineto
          endchar
        </CharString>
        <CharString name="nacute">
          -59 callsubr
          95 136 -36 callgsubr
          hintmask 11001100
          hintmask 10101100
          13 callsubr
          hintmask 11001100
          -92 callsubr
          -51 callsubr
          183 75 rmoveto
          -107 callsubr
        </CharString>
        <CharString name="ncaron">
          -59 callsubr
          93 120 -36 callgsubr
          hintmask 11011100
          -4 callgsubr
          -51 callsubr
          -62 -496 hlineto
          41 689 -104 callsubr
        </CharString>
        <CharString name="nine">
          -9 21 -21 201 86 307 85 hstem
          60 86 308 84 vstem
          299 -45 callsubr
        </CharString>
        <CharString name="nine.tf">
          32 21 -21 201 86 307 85 hstem
          81 86 308 84 vstem
          320 -45 callsubr
        </CharString>
        <CharString name="notequal">
          -5 0 200 -79 79 107 80 -80 189 hstemhm
          53 496 hintmask 01101000
          292 307 rmoveto
          -74 -107 rlineto
          -165 -79 109 hlineto
          hintmask 10101000
          -85 -121 rlineto
          100 hlineto
          hintmask 01101000
          85 121 rlineto
          287 79 -232 hlineto
          75 107 rlineto
          157 80 -101 hlineto
          hintmask 01011000
          76 109 rlineto
          -99 hlineto
          hintmask 01101000
          -77 -109 rlineto
          -295 -80 hlineto
          endchar
        </CharString>
        <CharString name="ntilde">
          -59 callsubr
          99 63 -20 63 -36 callgsubr
          hintmask 11001110
          -4 callgsubr
          hintmask 10101110
          -22 75 rlineto
          -62 -496 hlineto
          37 577 rmoveto
          65 hlineto
          -68 callgsubr
          hintmask 11010110
          -60 callsubr
          hvcurveto
          hintmask 11001110
          14 callsubr
          hintmask 11010110
          41 callgsubr
          hintmask 10101110
          -88 callsubr
        </CharString>
        <CharString name="numbersign">
          48 21 -21 172 81 162 81 172 -20 hstem
          38 579 vstem
          162 172 rmoveto
          -25 46 callgsubr
          123 hlineto
          -24 46 callgsubr
          124 hlineto
          11 81 rlineto
          -123 hlineto
          22 162 rlineto
          124 hlineto
          11 81 rlineto
          -123 34 callsubr
          -82 hlineto
          -24 -172 rlineto
          -123 34 callsubr
          -82 hlineto
          -24 -172 rlineto
          -124 hlineto
          -11 -81 rlineto
          124 hlineto
          -23 -162 rlineto
          -124 hlineto
          -11 -81 rlineto
          217 81 rmoveto
          22 162 rlineto
          123 hlineto
          -22 -162 rlineto
          endchar
        </CharString>
        <CharString name="o">
          -101 callsubr
          -41 callsubr
          endchar
        </CharString>
        <CharString name="oacute">
          -101 callsubr
          67 -42 callsubr
          183 325 rmoveto
          -107 callsubr
        </CharString>
        <CharString name="ocircumflex">
          -101 callsubr
          71 120 -43 callsubr
          -161 145 -98 callsubr
        </CharString>
        <CharString name="odieresis">
          -101 callsubr
          86 107 hstemhm
          38 90 -11 -106 callgsubr
          -12 90 hintmask 11110010
          -20 callgsubr
          hintmask 11101100
          -11 398 -93 callsubr
        </CharString>
        <CharString name="oe">
          320 -12 74 163 67 141 72 hstem
          38 89 297 92 293 89 vstem
          -81 callsubr
          -179 123 -79 115 72 76 32 68 46 vhcurveto
          -61 40 68 -39 91 hhcurveto
          93 67 42 57 37 hvcurveto
          -81 24 rlineto
          -30 -24 -36 -19 -56 hhcurveto
          -61 -88 38 125 -4 hvcurveto
          382 hlineto
          142 10 -83 138 -159 hhcurveto
          -81 -71 -37 -64 -43 hvcurveto
          69 -46 -76 32 -73 hhcurveto
          -115 -123 -79 -180 hvcurveto
          238 185 rmoveto
          72 76 -56 -129 -71 callgsubr
          -72 -77 56 128 129 77 56 72 hvcurveto
          390 2 rmoveto
          89 52 -70 -71 2 hvcurveto
          -292 hlineto
          100 7 68 41 74 hhcurveto
          endchar
        </CharString>
        <CharString name="ogonek">
          -22 callsubr
          27 25 19 25 68 25 hvcurveto
          -77 hlineto
          -49 -12 -31 -38 -41 vvcurveto
          endchar
        </CharString>
        <CharString name="ogonek.case">
          -22 callsubr
          28 34 31 20 56 20 hvcurveto
          -100 hlineto
          -26 -14 -31 -29 -48 vvcurveto
          endchar
        </CharString>
        <CharString name="ograve">
          -101 callsubr
          67 136 -43 callsubr
          -112 206 -20 callsubr
        </CharString>
        <CharString name="ohungarumlaut">
          -101 callsubr
          68 -42 callsubr
          102 326 -18 callgsubr
        </CharString>
        <CharString name="one">
          -205 21 -21 504 67 -67 164 hstemhm
          220 84 hintmask 11010000
          42 571 rmoveto
          -67 178 -504 84 vlineto
          hintmask 10110000
          668 -56 vlineto
          hintmask 11010000
          -82 -29 -81 -15 -96 hhcurveto
          endchar
        </CharString>
        <CharString name="one.tf">
          32 0 77 427 67 -67 164 hstemhm
          287 83 hintmask 11010000
          109 77 rmoveto
          -77 421 77 -160 vlineto
          hintmask 10110000
          591 -56 vlineto
          hintmask 11010000
          -82 -29 -80 -15 -96 hhcurveto
          -67 178 -427 vlineto
          endchar
        </CharString>
        <CharString name="onehalf">
          205 0 58 274 50 189 97 hstemhm
          136 67 478 70 vstemhm
          203 hmoveto
          3 callsubr
          369 hmoveto
          275 58 -194 hlineto
          117 79 69 71 75 vvcurveto
          63 -54 36 -70 -69 -48 -35 -55 -15 vhcurveto
          64 -19 rlineto
          43 6 29 16 30 hhcurveto
          34 23 -19 -35 -62 -75 -64 -122 -98 hvcurveto
          -348 517 rmoveto
          -279 67 376 -56 vlineto
          hintmask 11111000
          -38 -13 -37 -11 -44 hhcurveto
          -48 vlineto
          endchar
        </CharString>
        <CharString name="onequarter">
          219 0 143 -57 57 428 48 -48 97 hstemhm
          136 68 436 68 hintmask 01011100
          455 140 rmoveto
          -54 185 vlineto
          hintmask 10011100
          -86 68 vlineto
          hintmask 01011100
          86 65 57 -65 233 -67 vlineto
          hintmask 10011100
          -526 -376 rmoveto
          89 hlineto
          467 -83 callsubr
          hintmask 10101100
          -530 -49 rmoveto
          -48 83 -279 68 vlineto
          hintmask 10011100
          376 -57 vlineto
          hintmask 10101100
          -38 -13 -37 -11 -44 hhcurveto
          475 -476 rmoveto
          112 146 rlineto
          -146 vlineto
          endchar
        </CharString>
        <CharString name="onesuperior">
          -351 683 47 hstem
          136 67 vstem
          53 730 rmoveto
          -47 83 -280 67 376 -56 vlineto
          -37 -13 -37 -12 -44 hhcurveto
          endchar
        </CharString>
        <CharString name="ordfeminine">
          -236 397 51 82 48 65 49 hstem
          53 70 116 68 vstem
          152 397 rmoveto
          36 43 12 33 17 hvcurveto
          12 -39 rlineto
          58 hlineto
          -6 30 -5 27 31 vvcurveto
          82 vlineto
          92 -55 27 -63 -63 -43 -27 -40 -15 vhcurveto
          61 -18 rlineto
          25 6 22 11 29 hhcurveto
          51 2 -33 -32 hvcurveto
          -98 -8 -88 -18 -74 vvcurveto
          -48 38 -33 61 vhcurveto
          -29 86 rmoveto
          27 27 10 89 10 vhcurveto
          -11 vlineto
          -40 -20 -31 -47 -30 -19 12 23 vhcurveto
          endchar
        </CharString>
        <CharString name="ordmasculine">
          -226 398 54 186 54 hstem
          57 69 137 69 vstem
          57 545 rmoveto
          -100 66 -47 71 71 67 47 100 100 -67 47 -71 -71 -66 -47 -100 vhcurveto
          69 hmoveto
          60 29 33 39 40 29 -33 -60 -60 -29 -33 -40 -39 -29 33 60 vhcurveto
          endchar
        </CharString>
        <CharString name="oslash">
          -55 -12 74 -50 -21 439 74 hstemhm
          38 89 297 90 hintmask 01111000
          -81 callsubr
          -72 20 -56 31 -41 vhcurveto
          -44 -53 38 -33 42 49 rlineto
          hintmask 10111000
          -36 43 55 -16 53 hhcurveto
          115 123 79 179 78 -24 60 -36 41 hvcurveto
          41 49 -38 33 -41 -47 rlineto
          30 -41 -50 14 -49 hhcurveto
          -115 -123 -79 -179 hvcurveto
          140 -143 rmoveto
          219 256 rlineto
          17 -29 10 -37 -47 vvcurveto
          -71 callgsubr
          -35 -35 13 28 -28 vhcurveto
          -51 143 rmoveto
          128 77 56 72 30 32 -10 -22 26 vhcurveto
          -216 -252 rlineto
          -13 26 -8 34 40 vvcurveto
          endchar
        </CharString>
        <CharString name="otilde">
          -101 callsubr
          71 -90 callgsubr
          -34 callgsubr
          hintmask 11011100
          276 -12 rmoveto
          115 123 79 179 179 -123 79 -115 -114 -124 -79 -179 -179 124 -79 114 hvcurveto
          -148 258 rmoveto
          128 77 56 71 72 76 -56 -128 -71 callgsubr
          -71 -77 56 128 vhcurveto
          44 331 rmoveto
          -34 callsubr
        </CharString>
        <CharString name="p">
          -41 -12 72 372 72 -8 -20 hstemhm
          70 84 280 94 hintmask 10111000
          70 496 rmoveto
          -657 84 236 vlineto
          -53 30 53 -34 78 hhcurveto
          113 100 95 163 hvcurveto
          hintmask 11011000
          164 -100 94 -113 -78 -53 -34 -52 -30 vhcurveto
          hintmask 10111000
          -23 78 rlineto
          21 -250 rmoveto
          hintmask 11011000
          118 56 68 85 -62 callsubr
          -85 -56 68 118 vhcurveto
          endchar
        </CharString>
        <CharString name="paragraph">
          -99 601 67 hstem
          187 81 94 81 vstem
          38 479 rmoveto
          -91 64 -76 85 -18 vhcurveto
          -455 81 762 94 -762 81 762 40 67 -256 vlineto
          -104 -85 -85 -104 hvcurveto
          endchar
        </CharString>
        <CharString name="parenleft">
          -307 -95 callsubr
          50 74 vstem
          189 -161 rmoveto
          76 hlineto
          -101 137 -40 156 146 vvcurveto
          154 45 142 66 94 vhcurveto
          -75 hlineto
          -74 -117 -36 -135 -136 vvcurveto
          -155 47 -156 92 -130 vhcurveto
          endchar
        </CharString>
        <CharString name="parenright">
          -307 -95 callsubr
          177 73 vstem
          35 -161 rmoveto
          77 hlineto
          91 130 47 156 156 vvcurveto
          135 -35 135 -74 117 vhcurveto
          -75 hlineto
          66 -94 45 -142 -153 vvcurveto
          -146 -41 -157 -101 -137 vhcurveto
          endchar
        </CharString>
        <CharString name="partialdiff">
          -25 -12 73 369 74 94 82 hstem
          53 89 297 91 vstem
          53 246 rmoveto
          -180 123 -78 115 115 117 69 189 6 vhcurveto
          11 1 10 10 vvcurveto
          406 -267 -3 -121 vhcurveto
          -82 vlineto
          133 3 108 -23 40 -128 rrcurveto
          40 -32 -59 14 -41 hhcurveto
          -115 -123 -78 -180 hvcurveto
          238 184 rmoveto
          60 callgsubr
          -129 -76 -56 -72 -72 -77 56 129 128 77 56 72 hvcurveto
          endchar
        </CharString>
        <CharString name="percent">
          320 -12 74 -41 -21 277 75 -35 -102 callgsubr
          -12 -20 hstemhm
          38 -102 callgsubr
          125 -102 callgsubr
          hintmask 1001101111000000
          708 -12 rmoveto
          100 81 81 101 hvcurveto
          hintmask 1010101111000000
          100 -81 82 -100 -101 -81 -82 -100 vhcurveto
          hintmask 1001101111000000
          -101 81 -81 101 vhcurveto
          -488 329 rmoveto
          100 81 81 100 101 -81 81 -100 -101 -81 -81 -101 -100 81 -81 101 hvcurveto
          hintmask 0101011111000000
          54 -317 0 callsubr
          -74 498 rmoveto
          hintmask 1001101111000000
          60 48 48 60 59 48 -48 -60 -59 -48 -48 -59 vhcurveto
          hintmask 0101011111000000
          -59 -49 48 59 hvcurveto
          hintmask 1010101111000000
          488 -328 rmoveto
          59 48 48 60 59 48 -48 -59 -59 -48 -49 -59 -60 -48 49 59 vhcurveto
          endchar
        </CharString>
        <CharString name="period">
          -402 -12 129 -67 callgsubr
          38 52 rmoveto
          -35 29 -29 35 -63 callsubr
          vhcurveto
          endchar
        </CharString>
        <CharString name="periodcentered">
          -372 183 30 callsubr
          248 rmoveto
          -36 29 -29 35 27 callgsubr
          vhcurveto
          endchar
        </CharString>
        <CharString name="perthousand">
          721 -12 74 -41 -21 277 74 -35 75 214 75 -12 -20 hstemhm
          38 -102 callgsubr
          125 -102 callgsubr
          38 -102 callgsubr
          hintmask 1010101111110000
          hintmask 0001101100000000
          220 316 rmoveto
          100 81 82 100 100 -81 82 -100 -101 -81 -82 -100 -100 81 -82 101 hvcurveto
          hintmask 1010000011110000
          306 -147 rmoveto
          -100 81 -81 101 4 callsubr
          vhcurveto
          401 hmoveto
          -100 81 -81 101 4 callsubr
          vhcurveto
          hintmask 0110010000110000
          -653 -169 0 callsubr
          923 277 rmoveto
          59 48 -48 -60 hvcurveto
          hintmask 1000000000110000
          52 callgsubr
          vhcurveto
          hintmask 0110010000110000
          60 48 48 60 vhcurveto
          hintmask 1010101111000000
          -401 hmoveto
          59 48 -48 -60 52 callgsubr
          60 48 48 60 hvcurveto
          -488 328 rmoveto
          59 48 -48 -59 hvcurveto
          hintmask 0001001100000000
          -59 -48 -48 -59 -59 -49 48 59 vhcurveto
          hintmask 1010101111000000
          59 49 48 59 vhcurveto
          endchar
        </CharString>
        <CharString name="pi">
          -16 0 74 340 82 hstem
          104 81 198 84 vstem
          20 414 rmoveto
          84 -414 81 414 198 -290 hlineto
          -103 22 -21 95 vhcurveto
          51 74 -33 hlineto
          -48 -3 13 52 hvcurveto
          275 84 82 -531 vlineto
          endchar
        </CharString>
        <CharString name="plus">
          -5 21 -21 208 80 208 -20 hstem
          261 80 vstem
          53 288 rmoveto
          -80 208 -208 80 208 208 80 -208 208 -80 -208 vlineto
          endchar
        </CharString>
        <CharString name="plusminus">
          -28 0 79 191 79 147 -20 hstem
          250 79 vstem
          53 349 rmoveto
          -79 197 -146 79 146 197 79 -197 147 -79 -147 vlineto
          276 -349 rmoveto
          79 -473 -79 vlineto
          endchar
        </CharString>
        <CharString name="product">
          -22 587 81 hstem
          53 81 316 82 vstem
          53 668 rmoveto
          -829 81 748 316 -748 82 829 vlineto
          endchar
        </CharString>
        <CharString name="q">
          -31 -173 79 82 72 372 72 -8 -20 hstemhm
          38 93 281 84 hintmask 11011100
          250 -12 rmoveto
          79 53 34 53 30 hvcurveto
          -102 vlineto
          -114 63 -32 68 29 30 6 8 26 vhcurveto
          78 vlineto
          -9 -24 -21 -4 -16 hhcurveto
          -51 -20 34 36 hvcurveto
          520 -61 vlineto
          -23 -78 rlineto
          hintmask 11101100
          52 -30 -53 34 -79 hhcurveto
          -113 -99 -94 -164 -163 99 -95 113 hvcurveto
          23 444 rmoveto
          -62 callsubr
          -86 28 callsubr
          86 hvcurveto
          endchar
        </CharString>
        <CharString name="question">
          -87 -12 129 -108 -21 622 70 hstemhm
          162 129 -109 86 114 88 hintmask 01110100
          40 524 rmoveto
          82 -23 rlineto
          52 9 36 57 90 hhcurveto
          73 52 -38 -64 -54 -38 -37 -48 -30 hvcurveto
          hintmask 01101100
          -76 -49 -38 -34 -77 vvcurveto
          -37 86 34 vlineto
          51 20 16 57 37 vhcurveto
          63 41 62 61 86 vvcurveto
          113 -105 51 -104 vhcurveto
          hintmask 01110100
          -114 -87 -60 -96 -20 hvcurveto
          122 -472 rmoveto
          -38 32 -26 33 9 8 2 3 8 vhcurveto
          hintmask 10110100
          24 11 15 23 25 vvcurveto
          35 -28 30 -36 vhcurveto
          hintmask 01110100
          -36 -29 -29 -36 hvcurveto
          endchar
        </CharString>
        <CharString name="questiondown">
          -87 -173 70 493 129 hstemhm
          50 88 90 129 -105 86 hintmask 10110000
          258 -173 rmoveto
          115 86 60 96 21 hvcurveto
          -82 24 rlineto
          -53 -9 -37 -57 -92 hhcurveto
          -71 -51 38 58 60 37 37 48 30 hvcurveto
          hintmask 10101000
          77 49 38 34 78 vvcurveto
          36 -86 -34 vlineto
          -50 -20 -17 -58 -37 vhcurveto
          -62 -40 -62 -62 -88 vvcurveto
          hintmask 10110000
          -111 104 -51 104 vhcurveto
          hintmask 11110000
          -30 628 rmoveto
          -36 29 -29 36 35 29 29 36 35 -29 29 -35 -36 -29 -29 -35 vhcurveto
          endchar
        </CharString>
        <CharString name="quotedbl">
          -306 447 221 hstem
          47 66 75 66 vstem
          195 447 rmoveto
          52 hlineto
          14 221 rlineto
          -80 hlineto
          -141 hmoveto
          14 -221 rlineto
          52 hlineto
          14 221 rlineto
          endchar
        </CharString>
        <CharString name="quotedblbase">
          -209 -11 128 -107 -21 20 callsubr
          270 -11 rmoveto
          -47 -123 rlineto
          56 hlineto
          hintmask 10110000
          61 162 -87 callsubr
          -28 30 -36 -36 -29 -29 -36 vhcurveto
          hintmask 01110000
          -57 callsubr
          -163 hmoveto
          -47 -123 rlineto
          55 hlineto
          hintmask 10110000
          62 162 rlineto
          3 8 2 8 9 vvcurveto
          34 -29 30 -66 callgsubr
          -36 vhcurveto
          hintmask 01110000
          -57 callsubr
          endchar
        </CharString>
        <CharString name="quotedblleft">
          -209 418 128 122 -20 hstem
          53 129 34 129 vstem
          216 482 rmoveto
          -34 29 -30 36 35 29 28 36 32 -23 27 -30 5 vhcurveto
          46 -54 callgsubr
          -163 hmoveto
          -34 29 -30 36 35 29 28 36 32 -23 27 -31 5 vhcurveto
          47 -54 callgsubr
          endchar
        </CharString>
        <CharString name="quotedblright">
          -209 552 128 0 -20 20 callsubr
          hintmask 10110000
          270 552 rmoveto
          -47 -123 rlineto
          56 hlineto
          61 162 -87 callsubr
          -28 30 -36 -36 -29 -29 -36 -57 callsubr
          -163 hmoveto
          -61 callgsubr
        </CharString>
        <CharString name="quoteleft">
          -372 -95 callsubr
          53 129 vstem
          53 482 rmoveto
          -34 29 -30 36 35 29 28 36 32 -23 27 -31 5 vhcurveto
          47 -54 callgsubr
          endchar
        </CharString>
        <CharString name="quoteright">
          -372 680 -20 hstem
          53 129 vstem
          107 552 rmoveto
          -61 callgsubr
        </CharString>
        <CharString name="quotesinglbase">
          -372 10 -21 hstem
          53 129 vstem
          107 -11 rmoveto
          -61 callgsubr
        </CharString>
        <CharString name="quotesingle">
          -447 447 221 0 -20 hstemhm
          47 66 hintmask 01100000
          hintmask 10100000
          54 447 rmoveto
          52 hlineto
          14 221 rlineto
          -80 hlineto
          endchar
        </CharString>
        <CharString name="r">
          -14 callgsubr
          endchar
        </CharString>
        <CharString name="racute">
          -14 callgsubr
          10 75 rmoveto
          70 hlineto
          -107 callsubr
        </CharString>
        <CharString name="radical">
          -25 145 80 444 -20 hstem
          53 476 vstem
          279 -161 rmoveto
          99 hlineto
          151 830 rlineto
          -88 hlineto
          -123 -706 -103 262 rlineto
          -162 -80 106 hlineto
          endchar
        </CharString>
        <CharString name="rcaron">
          50 callgsubr
          93 120 hstemhm
          70 84 hintmask 11011000
          154 hmoveto
          213 vlineto
          132 45 72 136 vhcurveto
          87 vlineto
          -83 -59 -40 -60 -35 hvcurveto
          hintmask 10111000
          -27 92 rlineto
          -61 -496 hlineto
          88 588 -105 callgsubr
        </CharString>
        <CharString name="registered">
          191 -12 61 252 58 110 61 89 61 hstem
          53 62 149 76 134 76 133 62 vstem
          399 -12 rmoveto
          191 155 155 190 192 1 callsubr
          -192 -190 155 -155 191 hvcurveto
          -284 345 rmoveto
          157 127 129 157 157 127 -129 -157 -156 -127 -128 -54 callsubr
          128 156 vhcurveto
          225 -171 rmoveto
          139 42 vlineto
          102 -139 rlineto
          86 hlineto
          -108 149 rlineto
          76 21 12 51 31 vvcurveto
          97 -65 19 -109 vhcurveto
          -112 -368 hlineto
          124 307 rmoveto
          51 35 -11 -45 -35 -24 -19 -57 hvcurveto
          -53 110 hlineto
          endchar
        </CharString>
        <CharString name="ring">
          -354 559 58 102 58 hstem
          15 57 104 57 vstem
          126 559 -28 callsubr
        </CharString>
        <CharString name="ring.case">
          620 58 102 58 hstem
          54 57 104 57 vstem
          165 620 -28 callsubr
        </CharString>
        <CharString name="s">
          -44 callgsubr
          -64 callgsubr
          endchar
        </CharString>
        <CharString name="sacute">
          -44 callgsubr
          65 136 -64 callgsubr
          156 428 rmoveto
          -107 callsubr
        </CharString>
        <CharString name="scaron">
          -44 callgsubr
          64 120 -64 callgsubr
          -38 547 -104 callsubr
        </CharString>
        <CharString name="scedilla">
          -136 -181 41 59 40 30 70 -49 -21 235 67 143 71 hstemhm
          41 85 147 62 21 85 hintmask 1101111110000000
          -19 callgsubr
          hintmask 1110111110000000
          37 callgsubr
          38 -303 -78 callsubr
        </CharString>
        <CharString name="section">
          -77 -173 70 713 70 hstemhm
          31 84 -39 86 201 86 -33 84 hintmask 11011000
          363 -36 rmoveto
          -44 -42 -23 -58 -66 -34 31 52 -13 vhcurveto
          -83 -24 rlineto
          -81 24 71 -48 99 hhcurveto
          102 86 51 99 51 -25 33 -39 30 hvcurveto
          hintmask 11010100
          63 27 52 52 72 vvcurveto
          161 -313 40 -23 93 vhcurveto
          -1 6 -1 5 5 vvcurveto
          40 42 18 49 48 41 -18 -42 16 vhcurveto
          81 24 rlineto
          65 -27 -64 41 -91 hhcurveto
          -90 -91 -43 -87 -60 36 -40 39 -26 hvcurveto
          hintmask 11101000
          -65 -22 -55 -47 -66 -188 332 -7 -130 vvcurveto
          -248 330 rmoveto
          47 55 32 48 14 vhcurveto
          hintmask 11100100
          89 -53 109 -30 -78 vvcurveto
          -46 -48 -32 -45 -19 vhcurveto
          -120 73 -88 16 76 vvcurveto
          endchar
        </CharString>
        <CharString name="semicolon">
          -402 10 -21 386 129 -67 callgsubr
          38 53 rmoveto
          -32 23 -27 31 -5 vhcurveto
          -47 -122 rlineto
          55 hlineto
          62 161 -87 callsubr
          -29 30 -36 -35 -29 -29 -35 vhcurveto
          64 322 11 callgsubr
        </CharString>
        <CharString name="seven">
          -97 21 -21 587 81 hstem
          15 461 vstem
          93 -5 callsubr
        </CharString>
        <CharString name="seven.tf">
          32 21 -21 587 81 hstem
          89 461 vstem
          167 -5 callsubr
        </CharString>
        <CharString name="six">
          -9 -12 71 312 74 165 70 hstem
          60 87 301 90 vstem
          303 -29 callgsubr
        </CharString>
        <CharString name="six.tf">
          32 -12 71 312 74 165 70 hstem
          81 87 301 90 vstem
          324 -29 callgsubr
        </CharString>
        <CharString name="slash">
          2 callsubr
          15 hmoveto
          87 hlineto
          260 668 rlineto
          -87 hlineto
          endchar
        </CharString>
        <CharString name="space">
          -327 endchar
        </CharString>
        <CharString name="sterling">
          -21 -12 78 -40 76 216 51 240 71 hstemhm
          112 89 1 88 hintmask 10111000
          70 369 rmoveto
          -51 vlineto
          hintmask 10110100
          109 hlineto
          16 -34 7 -31 -27 vvcurveto
          -101 -92 -55 -37 -15 vhcurveto
          28 -67 rlineto
          hintmask 01111000
          28 55 43 10 36 hhcurveto
          hintmask 10111000
          73 48 -38 75 hhcurveto
          35 40 8 22 50 hvcurveto
          -25 73 rlineto
          -19 -44 -35 -6 -30 hhcurveto
          hintmask 01110100
          -69 -40 36 -59 hhcurveto
          -18 -19 -3 -9 -23 hvcurveto
          54 32 42 49 67 vvcurveto
          24 -5 27 -13 29 vhcurveto
          181 51 hlineto
          hintmask 10111000
          -204 hlineto
          -23 46 -25 45 48 vvcurveto
          77 71 24 57 62 54 -24 -69 18 vhcurveto
          83 25 rlineto
          85 -26 -75 54 -112 hhcurveto
          -106 -115 -46 -123 -52 22 -45 22 -45 hvcurveto
          endchar
        </CharString>
        <CharString name="summation">
          -20 -161 81 667 81 hstem
          53 481 vstem
          53 668 rmoveto
          -81 vlineto
          246 -333 -246 -334 rlineto
          -81 481 81 -380 vlineto
          245 334 -245 333 rlineto
          380 81 hlineto
          endchar
        </CharString>
        <CharString name="t">
          -283 0 74 355 67 hstem
          104 84 vstem
          20 496 rmoveto
          29 callgsubr
          74 -45 hlineto
          -66 callsubr
          vlineto
          endchar
        </CharString>
        <CharString name="tcaron">
          -283 0 74 355 67 49 76 hstem
          104 84 vstem
          284 hmoveto
          74 -45 vlineto
          -66 callsubr
          -84 29 callgsubr
          545 -73 callsubr
        </CharString>
        <CharString name="thorn">
          -41 -12 72 373 72 164 -20 hstem
          70 84 280 94 vstem
          70 669 rmoveto
          -830 84 236 vlineto
          -52 30 53 -35 78 hhcurveto
          113 100 95 163 165 -100 94 -113 -78 -53 -35 -52 -30 hvcurveto
          251 vlineto
          139 -236 rmoveto
          85 56 -69 -118 -118 -56 -68 -85 -85 -56 69 117 118 56 69 85 hvcurveto
          endchar
        </CharString>
        <CharString name="three">
          -33 21 callsubr
          407 88 -71 90 hintmask 11101000
          42 -46 callsubr
        </CharString>
        <CharString name="three.tf">
          32 21 callsubr
          449 88 -71 90 hintmask 11101000
          84 -46 callsubr
        </CharString>
        <CharString name="threequarters">
          261 0 143 -57 57 148 51 124 53 -24 -20 154 51 -12 -20 hstemhm
          252 69 -60 69 352 69 hintmask 0110110011000000
          682 86 rmoveto
          hintmask 1010110011000000
          -86 69 vlineto
          hintmask 0110110011000000
          86 64 57 -64 233 -68 vlineto
          -186 -236 rlineto
          -54 vlineto
          hintmask 1010101011000000
          -252 -86 rmoveto
          469 -83 callsubr
          -469 -668 rlineto
          30 291 rmoveto
          53 callgsubr
          15 hvcurveto
          hintmask 1011010101000000
          30 16 23 30 37 vvcurveto
          71 -65 31 -62 -70 -49 -33 -53 -17 vhcurveto
          61 -18 rlineto
          33 10 23 20 38 hhcurveto
          32 30 -17 -36 -62 -74 5 -27 hvcurveto
          -53 vlineto
          hintmask 1010110011000000
          16 callsubr
          24 32 -10 hvcurveto
          -62 -18 rlineto
          -51 17 46 -38 71 hhcurveto
          495 -2 rmoveto
          -146 -112 vlineto
          endchar
        </CharString>
        <CharString name="threesuperior">
          -224 397 51 56 -20 88 54 110 50 hstemhm
          252 69 -60 69 hintmask 11110100
          53 486 rmoveto
          -51 17 46 -38 71 hhcurveto
          53 callgsubr
          16 hvcurveto
          hintmask 11111000
          30 16 23 31 36 vvcurveto
          71 -65 30 -62 -70 -49 -32 -53 -17 vhcurveto
          61 -18 rlineto
          34 10 23 19 38 hhcurveto
          32 30 -16 -37 -62 -74 5 -27 hvcurveto
          -54 vlineto
          hintmask 11110100
          16 callsubr
          25 31 -10 hvcurveto
          endchar
        </CharString>
        <CharString name="tilde">
          -172 575 -90 callgsubr
          53 329 hintmask 01100000
          118 577 -86 callsubr
          hintmask 10100000
          -60 callsubr
          hvcurveto
          hintmask 01100000
          14 callsubr
          hintmask 10100000
          41 callgsubr
          hintmask 01100000
          -88 callsubr
        </CharString>
        <CharString name="tilde.case">
          747 -90 callgsubr
          -2 329 hintmask 10100000
          hintmask 01100000
          63 749 -86 callsubr
          hintmask 10100000
          -17 callsubr
          hintmask 01100000
          -88 callsubr
        </CharString>
        <CharString name="trademark">
          241 608 60 hstem
          171 67 155 67 268 67 vstem
          393 -107 callgsubr
          -376 67 279 vlineto
          98 -279 rlineto
          72 hlineto
          98 279 rlineto
          -279 67 376 -108 vlineto
          -93 -284 -93 284 rlineto
          -448 -60 rmoveto
          118 -316 67 316 118 60 -303 hlineto
          endchar
        </CharString>
        <CharString name="two">
          -58 0 77 533 70 hstem
          408 89 vstem
          515 -39 callsubr
        </CharString>
        <CharString name="two.tf">
          32 0 77 533 70 hstem
          453 89 vstem
          560 -39 callsubr
        </CharString>
        <CharString name="twosuperior">
          -225 403 58 275 50 hstem
          250 70 vstem
          329 403 rmoveto
          58 -195 vlineto
          117 80 69 71 74 vvcurveto
          64 -54 36 -70 -69 -48 -35 -56 -14 vhcurveto
          64 -18 rlineto
          43 5 29 16 30 hhcurveto
          34 23 -19 -35 -62 -74 -65 -123 -97 hvcurveto
          -55 vlineto
          endchar
        </CharString>
        <CharString name="u">
          -40 callsubr
          endchar
        </CharString>
        <CharString name="uacute">
          -40 callsubr
          9 583 rmoveto
          70 hlineto
          -107 callsubr
        </CharString>
        <CharString name="ucircumflex">
          -92 callgsubr
          98 120 -77 callsubr
          132 78 rmoveto
          -84 callgsubr
          -112 -101 rlineto
          endchar
        </CharString>
        <CharString name="udieresis">
          -92 callgsubr
          113 107 hstemhm
          68 84 -44 -106 callgsubr
          -45 84 hintmask 10111001
          68 180 rmoveto
          -113 43 -79 116 82 45 36 48 28 vhcurveto
          hintmask 01111001
          -88 callgsubr
          hintmask 10111001
          -87 callgsubr
          -84 vlineto
          hintmask 10110110
          94 93 rmoveto
          -27 callsubr
        </CharString>
        <CharString name="ugrave">
          -92 callgsubr
          94 136 -77 callsubr
          76 172 rmoveto
          -35 callgsubr
          vhcurveto
          -56 callgsubr
          hvcurveto
          endchar
        </CharString>
        <CharString name="uhungarumlaut">
          -92 callgsubr
          95 136 42 callgsubr
          497 rmoveto
          -317 vlineto
          -7 callgsubr
          vlineto
          72 75 rmoveto
          -78 callgsubr
          21 -17 17 -21 -90 callsubr
          216 hmoveto
          81 71 rlineto
          9 8 2 10 9 vvcurveto
          20 -18 18 -20 -90 callsubr
          endchar
        </CharString>
        <CharString name="umacron">
          -92 callgsubr
          124 67 -77 callsubr
          337 104 -73 callgsubr
        </CharString>
        <CharString name="underscore">
          -211 -79 79 hstem
          10 376 vstem
          10 -79 rmoveto
          376 79 -376 hlineto
          endchar
        </CharString>
        <CharString name="uni000D">
          -607 endchar
        </CharString>
        <CharString name="uni00A0">
          -327 endchar
        </CharString>
        <CharString name="uni0122">
          103 -250 34 204 25 callgsubr
          209 66 132 89 hintmask 11011111
          -24 callgsubr
          hintmask 10111111
          49 callgsubr
          -57 -595 -105 callsubr
        </CharString>
        <CharString name="uni0123">
          -89 callsubr
          263 34 hstemhm
          38 91 62 66 149 84 hintmask 11011111
          81 -76 rmoveto
          -58 callgsubr
          hintmask 11101111
          -44 callsubr
          42 694 rmoveto
          -70 -50 -44 -63 -32 16 -34 40 -21 hvcurveto
          60 26 rlineto
          -37 13 -13 26 26 vvcurveto
          62 62 7 32 vhcurveto
          endchar
        </CharString>
        <CharString name="uni0136">
          20 -250 34 237 -100 callgsubr
          -102 callsubr
          133 66 vstem
          76 hmoveto
          94 210 hlineto
          100 110 232 -320 -82 callsubr
          -284 389 255 279 rlineto
          -117 hlineto
          -301 -336 rlineto
          336 -94 vlineto
          173 -918 -105 callsubr
        </CharString>
        <CharString name="uni0137">
          -117 -250 34 237 40 callgsubr
          86 66 vstem
          70 hmoveto
          84 166 hlineto
          58 63 165 -229 rlineto
          103 hlineto
          -212 291 187 205 rlineto
          -101 hlineto
          -200 -223 rlineto
          395 -84 vlineto
          116 -918 -105 callsubr
        </CharString>
        <CharString name="uni013B">
          -68 -251 34 217 81 587 -20 -102 callsubr
          123 66 vstem
          -56 callsubr
          587 -94 hlineto
          163 -919 -105 callsubr
        </CharString>
        <CharString name="uni013C">
          -368 -250 34 216 74 593 -20 hstemhm
          70 84 -24 66 hintmask 11110000
          224 hmoveto
          74 -19 vlineto
          35 callsubr
          31 callgsubr
          -111 -75 callsubr
        </CharString>
        <CharString name="uni0145">
          82 -250 34 216 9 callsubr
          183 66 100 94 hintmask 10101111
          76 hmoveto
          94 hlineto
          hintmask 10110111
          -69 callsubr
          hintmask 11001111
          30 callgsubr
          223 -918 -105 callsubr
        </CharString>
        <CharString name="uni0146">
          -61 -250 34 237 -101 callgsubr
          -8 -20 hstemhm
          70 84 127 66 47 84 hintmask 11101110
          70 hmoveto
          84 269 hlineto
          -92 callsubr
          hintmask 11011110
          -22 75 rlineto
          -62 hlineto
          157 -746 -105 callsubr
        </CharString>
        <CharString name="uni0162">
          21 callgsubr
          -47 14 callgsubr
          -7 -19 callsubr
        </CharString>
        <CharString name="uni0163">
          20 callgsubr
          -26 -26 callsubr
          -113 -75 callsubr
        </CharString>
        <CharString name="uni0218">
          -11 -250 34 204 79 534 79 hstem
          46 97 163 66 85 -85 callgsubr
          125 -422 -105 callsubr
        </CharString>
        <CharString name="uni0219">
          -136 -250 34 204 71 165 67 143 71 hstem
          41 85 118 66 46 -25 callgsubr
          78 -392 -105 callsubr
        </CharString>
        <CharString name="uni021A">
          21 callgsubr
          -46 14 callgsubr
          -6 -19 callsubr
        </CharString>
        <CharString name="uni021B">
          20 callgsubr
          -18 -26 callsubr
          -105 -75 callsubr
        </CharString>
        <CharString name="uni02C9">
          9 callgsubr
        </CharString>
        <CharString name="uni0326">
          -327 -250 34 hstem
          148 66 vstem
          94 -250 -105 callsubr
        </CharString>
        <CharString name="uni0394">
          152 0 78 602 -20 hstem
          53 653 vstem
          53 hmoveto
          653 hlineto
          -327 680 rlineto
          -201 -602 rmoveto
          201 420 201 -420 rlineto
          endchar
        </CharString>
        <CharString name="uni03A9">
          80 0 81 525 74 hstem
          50 73 78 85 115 85 78 73 vstem
          201 130 rmoveto
          -49 -151 -81 236 173 vlineto
          -94 25 -69 86 101 vvcurveto
          122 99 99 121 122 99 -99 -122 -101 -69 -86 -94 -25 vhcurveto
          -173 236 81 -151 49 vlineto
          90 50 61 96 109 vvcurveto
          163 -131 132 -163 -162 -131 -132 -163 -109 61 -96 90 -50 vhcurveto
          endchar
        </CharString>
        <CharString name="uni03BC">
          -69 -12 74 -41 -21 497 -20 hstemhm
          70 84 230 84 hintmask 10111000
          70 497 rmoveto
          -659 84 203 vlineto
          -33 25 33 -20 42 hhcurveto
          74 28 36 48 28 hvcurveto
          hintmask 01111000
          -88 callgsubr
          hintmask 10111000
          -106 -47 -56 -79 -86 -18 58 71 vhcurveto
          306 vlineto
          endchar
        </CharString>
        <CharString name="uni2113">
          -157 -12 73 549 70 hstem
          119 85 108 82 vstem
          53 138 rmoveto
          66 50 rlineto
          -32 vlineto
          -118 41 -50 101 56 49 26 28 31 vhcurveto
          -37 58 rlineto
          -22 -25 -29 -17 -35 hhcurveto
          -37 -30 17 73 hvcurveto
          100 vlineto
          123 91 67 78 118 vvcurveto
          83 -46 59 -84 -104 -41 -64 -109 vhcurveto
          -229 vlineto
          -66 -51 rlineto
          151 291 rmoveto
          71 16 21 39 32 21 -22 -53 -74 -34 -65 -74 -52 vhcurveto
          endchar
        </CharString>
        <CharString name="uni2215">
          -9 21 -21 669 -20 hstem
          15 568 vstem
          15 hmoveto
          100 hlineto
          468 669 rlineto
          -100 hlineto
          endchar
        </CharString>
        <CharString name="uni2219">
          -372 191 30 callsubr
          255 rmoveto
          -32 25 -32 40 25 23 15 25 11 vhcurveto
          3 8 2 9 8 vvcurveto
          25 -15 23 -25 11 vhcurveto
          3 -8 -8 2 -8 hhcurveto
          -26 -23 -15 -25 -11 hvcurveto
          -3 -8 -2 -9 -8 vvcurveto
          endchar
        </CharString>
        <CharString name="uogonek">
          -71 -173 58 103 24 callsubr
          157 70 3 84 hintmask 11011010
          12 callgsubr
          hintmask 11011100
          20 -68 rlineto
          -58 -10 -35 -36 -49 vvcurveto
          -43 34 -39 60 vhcurveto
          hintmask 11011010
          19 21 4 8 23 hvcurveto
          54 vlineto
          hintmask 11011100
          43 callgsubr
          27 hvcurveto
          hintmask 10111010
          -55 callsubr
          vhcurveto
          497 -84 -273 vlineto
          hintmask 11011010
          -87 callgsubr
          vlineto
          endchar
        </CharString>
        <CharString name="uring">
          -92 callgsubr
          82 58 102 58 hstemhm
          68 84 6 57 104 57 6 84 hintmask 1011111110000000
          12 callgsubr
          hintmask 0111111110000000
          -88 callgsubr
          hintmask 1011111110000000
          -87 callgsubr
          vlineto
          117 62 rmoveto
          -51 callgsubr
          -2 160 -12 callsubr
        </CharString>
        <CharString name="v">
          -166 0 110 -89 -49 callsubr
          hstemhm
          0 441 hintmask 01110000
          177 hmoveto
          87 hlineto
          177 496 rlineto
          -91 hlineto
          hintmask 10110000
          -129 -386 -130 386 rlineto
          -91 hlineto
          endchar
        </CharString>
        <CharString name="w">
          47 0 129 -108 -21 399 97 0 -20 hstemhm
          0 654 hintmask 01011000
          143 hmoveto
          76 hlineto
          hintmask 01101000
          108 399 108 -399 rlineto
          77 hlineto
          142 496 rlineto
          -90 hlineto
          hintmask 10011000
          -95 -367 -98 367 rlineto
          -87 hlineto
          -99 -367 -95 367 rlineto
          -90 hlineto
          endchar
        </CharString>
        <CharString name="x">
          -146 21 -49 callsubr
          hstem
          0 461 vstem
          0 vmoveto
          99 hlineto
          131 185 132 -185 rlineto
          99 hlineto
          -181 255 172 241 rlineto
          -99 hlineto
          -123 -172 -122 172 rlineto
          -99 hlineto
          172 -241 rlineto
          endchar
        </CharString>
        <CharString name="y">
          -58 callsubr
          -12 callgsubr
          endchar
        </CharString>
        <CharString name="yacute">
          -58 callsubr
          96 136 -12 callgsubr
          249 76 rmoveto
          -107 callsubr
        </CharString>
        <CharString name="ydieresis">
          -58 callsubr
          115 107 hstem
          55 -106 callgsubr
          -8 callgsubr
          109 95 -62 callgsubr
        </CharString>
        <CharString name="yen">
          -12 0 137 -51 51 86 51 394 -20 hstemhm
          251 94 hintmask 10111000
          10 -107 callgsubr
          232 -394 rlineto
          -141 -51 150 -86 -150 hlineto
          hintmask 01111000
          -51 150 vlineto
          hintmask 10111000
          -86 94 vlineto
          hintmask 01111000
          86 149 vlineto
          hintmask 10111000
          51 -149 86 149 51 -141 vlineto
          232 394 -80 callgsubr
          endchar
        </CharString>
        <CharString name="z">
          -76 callgsubr
          hstem
          40 390 -59 callgsubr
          endchar
        </CharString>
        <CharString name="zacute">
          -76 callgsubr
          74 136 hstem
          40 390 vstem
          430 hmoveto
          74 -295 vlineto
          285 348 rlineto
          74 -371 -74 276 vlineto
          -285 -348 rlineto
          -74 vlineto
          234 570 rmoveto
          -107 callsubr
        </CharString>
        <CharString name="zcaron">
          -76 callgsubr
          73 -106 callsubr
          40 390 -59 callgsubr
          29 615 -104 callsubr
        </CharString>
        <CharString name="zdotaccent">
          -76 callgsubr
          94 108 hstem
          176 108 -59 callgsubr
          136 570 -93 callgsubr
        </CharString>
        <CharString name="zero">
          41 -12 74 544 74 hstem
          60 91 346 91 vstem
          324 -47 callsubr
        </CharString>
        <CharString name="zero.tf">
          32 -12 74 544 74 hstem
          56 91 346 91 vstem
          320 -47 callsubr
        </CharString>
      <CharString index="0">
        668 rmoveto
        return
      </CharString>
      <CharString index="1">
        108 104 107 return
      </CharString>
      <CharString index="2">
        rmoveto
        -13 14 18 -6 18 hhcurveto
        17 18 6 13 14 hvcurveto
        112 101 rlineto
        -94 hlineto
        -68 -61 -67 61 rlineto
        -94 hlineto
        endchar
      </CharString>
      <CharString index="3">
        83 -12 81 599 -20 return
      </CharString>
      <CharString index="4">
        -12 79 534 79 return
      </CharString>
      <CharString index="5">
        74 215 74 return
      </CharString>
      <CharString index="6">
        -21 432 72 return
      </CharString>
      <CharString index="7">
        -21 668 -20 return
      </CharString>
      <CharString index="8">
        20 -68 rlineto
        77 hlineto
        -57 callgsubr
        return
      </CharString>
      <CharString index="9">
        rmoveto
        -94 callgsubr
      </CharString>
      <CharString index="10">
        -68 -12 -38 callgsubr
        return
      </CharString>
      <CharString index="11">
        120 -103 callgsubr
        return
      </CharString>
      <CharString index="12">
        rmoveto
        -31 -13 -30 -22 -35 hhcurveto
        -36 -30 22 31 -12 hvcurveto
        -69 hlineto
        -68 14 60 -52 73 hhcurveto
        72 61 52 68 14 hvcurveto
        endchar
      </CharString>
      <CharString index="13">
        6 4 57 33 17 15 rrcurveto
        11 9 5 12 11 vvcurveto
        20 -16 16 -20 -10 -10 -4 -8 -9 vhcurveto
        -17 -14 -81 -85 -9 -9 rrcurveto
        endchar
      </CharString>
      <CharString index="14">
        rmoveto
        -30 24 -24 30 -65 callgsubr
        30 -24 24 -30 -30 -24 -24 -30 vhcurveto
        endchar
      </CharString>
      <CharString index="15">
        -71 -12 74 -41 -21 497 -20 return
      </CharString>
      <CharString index="16">
        -193 0 74 520 74 return
      </CharString>
      <CharString index="17">
        63 -20 63 hstemhm
        return
      </CharString>
      <CharString index="18">
        68 97 22 152 16 vhcurveto
        -31 vlineto
        48 callgsubr
        vhcurveto
        return
      </CharString>
      <CharString index="19">
        21 -72 rlineto
        63 497 -84 -273 hlineto
        return
      </CharString>
      <CharString index="20">
        -106 -47 -56 -79 -91 -13 66 77 vhcurveto
        292 return
      </CharString>
      <CharString index="21">
        81 203 81 return
      </CharString>
      <CharString index="22">
        99 vstem
        40 146 rmoveto
        -108 35 111 -50 110 hhcurveto
        131 129 70 124 145 -125 34 -116 25 hvcurveto
        -91 19 -81 17 75 vvcurveto
        70 71 34 73 61 63 -24 -47 26 vhcurveto
        86 25 rlineto
        86 -42 -96 39 -94 hhcurveto
        -123 -122 -66 -113 -147 137 -30 103 -22 hvcurveto
        127 -26 44 -30 -60 vvcurveto
        -80 -77 -39 -80 -73 -77 33 72 -23 vhcurveto
        return
      </CharString>
      <CharString index="23">
        67 61 68 -61 rlineto
        94 hlineto
        -112 101 rlineto
        13 -14 -18 6 -17 hhcurveto
        -18 -18 -6 -13 -14 hvcurveto
        return
      </CharString>
      <CharString index="24">
        -47 callgsubr
        -30 24 -24 29 hvcurveto
        endchar
      </CharString>
      <CharString index="25">
        10 hmoveto
        100 hlineto
        51 146 rlineto
        304 hlineto
        51 -146 rlineto
        100 hlineto
        -250 669 rlineto
        -105 hlineto
        return
      </CharString>
      <CharString index="26">
        38 131 rmoveto
        39 callgsubr
        return
      </CharString>
      <CharString index="27">
        rlineto
        -103 hlineto
        -184 -323 -185 323 rlineto
        return
      </CharString>
      <CharString index="28">
        -30 -23 -37 -19 -56 hhcurveto
        -61 -88 38 125 -4 hvcurveto
        382 hlineto
        142 10 -83 137 -158 hhcurveto
        -136 -105 -100 -157 return
      </CharString>
      <CharString index="29">
        81 71 rlineto
        9 8 2 10 9 vvcurveto
        return
      </CharString>
      <CharString index="30">
        172 96 94 121 return
      </CharString>
      <CharString index="31">
        -147 0 74 348 74 return
      </CharString>
      <CharString index="32">
        hstemhm
        38 93 242 84 -77 77 return
      </CharString>
      <CharString index="33">
        -65 callgsubr
        29 -24 24 -30 return
      </CharString>
      <CharString index="34">
        rmoveto
        67 -276 -67 vlineto
        endchar
      </CharString>
      <CharString index="35">
        120 hstem
        76 94 return
      </CharString>
      <CharString index="36">
        -128 -76 -56 -72 return
      </CharString>
      <CharString index="37">
        265 81 -265 203 359 81 return
      </CharString>
      <CharString index="38">
        -107 -12 74 368 74 return
      </CharString>
      <CharString index="39">
        26 3 15 15 24 hhcurveto
        return
      </CharString>
      <CharString index="40">
        hstem
        38 129 vstem
        return
      </CharString>
      <CharString index="41">
        -36 -35 -29 -29 return
      </CharString>
      <CharString index="42">
        30 24 24 30 return
      </CharString>
      <CharString index="43">
        hstem
        41 85 230 -25 callgsubr
        return
      </CharString>
      <CharString index="44">
        345 -12 rmoveto
        195 74 96 195 hvcurveto
        389 -94 -396 vlineto
        -132 -47 -71 -128 -128 -47 71 132 vhcurveto
        396 -94 -389 vlineto
        -195 75 -96 194 vhcurveto
        return
      </CharString>
      <CharString index="45">
        rmoveto
        -74 callgsubr
        -30 -24 -24 -29 -30 24 -24 30 hvcurveto
        211 hmoveto
        -83 callgsubr
      </CharString>
      <CharString index="46">
        -47 -123 rlineto
        55 hlineto
        62 162 rlineto
        3 8 2 8 9 vvcurveto
        34 -29 30 -66 callgsubr
        -36 -32 23 -26 31 -5 vhcurveto
        endchar
      </CharString>
      <CharString index="47">
        rmoveto
        -55 callgsubr
        -11 6 -12 10 -9 hvcurveto
        endchar
      </CharString>
      <CharString index="48">
        vstem
        40 hmoveto
        390 74 -295 hlineto
        285 348 rlineto
        74 -371 -74 276 vlineto
        -285 -348 rlineto
        return
      </CharString>
      <CharString index="49">
        -83 26 86 -33 81 hhcurveto
        34 33 6 10 28 hvcurveto
        115 42 6 83 98 vvcurveto
        449 -61 vlineto
        -23 -78 rlineto
        return
      </CharString>
      <CharString index="50">
        -9 47 -7 57 -1 83 -1 116 rcurveline
        139 -1 -59 62 -137 hhcurveto
        -89 -74 -44 -76 -27 hvcurveto
        81 -24 rlineto
        48 11 39 29 60 hhcurveto
        80 35 -47 -84 -3 hvcurveto
        -203 -23 -132 -34 -118 vvcurveto
        return
      </CharString>
      <CharString index="51">
        18 -19 31 -25 26 -21 rrcurveto
        70 hlineto
        -93 121 rlineto
        12 -9 -11 3 -11 hhcurveto
        -21 -17 -17 -21 return
      </CharString>
      <CharString index="52">
        18 -15 57 -33 6 -4 rrcurveto
        76 hlineto
        -106 107 rlineto
        10 -9 -12 3 -10 hhcurveto
        -20 -16 -16 -20 return
      </CharString>
      <CharString index="53">
        122 rlineto
        -55 hlineto
        -62 -161 rlineto
        -3 -8 -2 -9 -8 vvcurveto
        return
      </CharString>
      <CharString index="54">
        -14 34 29 -6 25 hhcurveto
        65 32 41 38 32 -23 29 -46 -9 -10 -2 -2 -11 hvcurveto
        return
      </CharString>
      <CharString index="55">
        rmoveto
        13 callgsubr
      </CharString>
      <CharString index="56">
        61 46 50 59 51 callgsubr
        -59 49 -50 62 hvcurveto
        return
      </CharString>
      <CharString index="57">
        50 134 rlineto
        29 7 -20 20 -24 hhcurveto
        -23 -11 -18 -11 -2 hvcurveto
        return
      </CharString>
      <CharString index="58">
        100 168 174 92 92 118 87 59 -42 -60 30 return
      </CharString>
      <CharString index="59">
        -42 -26 43 -56 hhcurveto
        -53 -41 -33 -71 -12 hvcurveto
        endchar
      </CharString>
      <CharString index="60">
        -74 callgsubr
        -29 -24 -24 -29 return
      </CharString>
      <CharString index="61">
        34 -39 60 19 21 4 8 23 vhcurveto
        54 vlineto
        43 callgsubr
        return
      </CharString>
      <CharString index="62">
        82 0 57 callgsubr
        return
      </CharString>
      <CharString index="63">
        -136 -12 71 165 67 143 71 return
      </CharString>
      <CharString index="64">
        -7 -25 -17 -116 -2 -13 rrcurveto
        endchar
      </CharString>
      <CharString index="65">
        11 21 -21 281 79 229 79 return
      </CharString>
      <CharString index="66">
        123 347 123 -347 rlineto
        return
      </CharString>
      <CharString index="67">
        -202 121 -145 192 return
      </CharString>
      <CharString index="68">
        28 28 35 34 -28 28 return
      </CharString>
      <CharString index="69">
        74 163 67 140 72 return
      </CharString>
      <CharString index="70">
        hstem
        76 94 vstem
        76 -107 callgsubr
        -668 return
      </CharString>
      <CharString index="71">
        hstemhm
        70 84 240 84 return
      </CharString>
      <CharString index="72">
        -9 3 -9 14 -15 return
      </CharString>
      <CharString index="73">
        38 90 296 90 return
      </CharString>
      <CharString index="74">
        50 335 rmoveto
        return
      </CharString>
      <CharString index="75">
        188 rmoveto
        -128 108 -72 139 140 108 72 128 86 -49 62 -74 30 vhcurveto
        hintmask 11101100
        35 33 22 47 53 vvcurveto
        100 -81 81 -101 -100 -81 -81 -100 -53 22 -47 35 -33 vhcurveto
        hintmask 11110010
        -74 -30 -49 -62 -86 vvcurveto
        91 hmoveto
        78 61 51 95 96 61 -51 -78 -78 -61 -48 -96 -95 -61 48 78 vhcurveto
        hintmask 11101100
        49 312 rmoveto
        59 48 47 59 59 48 -47 -59 -61 -48 -48 -59 -59 -48 48 61 vhcurveto
        endchar
      </CharString>
      <CharString index="76">
        -81 -12 67 -34 -21 437 67 67 136 -75 callgsubr
        hintmask 10111100
        -81 callgsubr
        hintmask 01111100
        -99 callgsubr
        return
      </CharString>
      <CharString index="77">
        -97 callgsubr
        67 136 -28 callgsubr
        return
      </CharString>
      <CharString index="78">
        -12 rmoveto
        143 92 106 124 134 -91 93 -124 -89 -57 -41 -52 -30 hvcurveto
        155 4 56 103 104 hhcurveto
        53 40 -23 -39 20 hvcurveto
        85 25 rlineto
        60 -29 -60 47 -99 hhcurveto
        -194 -67 -181 -189 -206 76 -116 167 hvcurveto
        -146 227 rmoveto
        92 57 64 89 88 57 -64 -92 -92 -57 -64 -88 -89 -57 64 92 vhcurveto
        endchar
      </CharString>
      <CharString index="79">
        hstem
        38 90 293 -26 callgsubr
        return
      </CharString>
      <CharString index="80">
        89 vstem
        281 -12 rmoveto
        93 68 41 58 36 hvcurveto
        -81 24 rlineto
        -79 callgsubr
        -146 87 -113 156 hvcurveto
        -2 444 rmoveto
        88 53 -70 -70 1 hvcurveto
        -292 hlineto
        100 8 67 40 75 hhcurveto
        return
      </CharString>
      <CharString index="81">
        89 vstem
        281 -12 rmoveto
        93 68 41 58 36 hvcurveto
        -81 24 rlineto
        -79 callgsubr
        -146 87 -113 156 hvcurveto
        -152 304 rmoveto
        100 8 67 40 75 hhcurveto
        88 53 -70 -70 1 hvcurveto
        return
      </CharString>
      <CharString index="82">
        85 vstem
        -19 callgsubr
        37 callgsubr
        return
      </CharString>
      <CharString index="83">
        358 264 rmoveto
        195 -22 hlineto
        -10 callgsubr
        -203 110 -144 192 90 78 28 68 43 hvcurveto
        return
      </CharString>
      <CharString index="84">
        hstem
        38 91 vstem
        38 246 rmoveto
        -150 89 -108 142 88 73 47 64 37 vhcurveto
        -77 28 rlineto
        -37 -22 -42 -28 -54 hhcurveto
        -74 -69 60 125 125 68 58 75 51 43 -26 -40 22 hvcurveto
        77 28 rlineto
        61 -32 -66 51 -89 hhcurveto
        -147 -93 -110 -148 hvcurveto
        return
      </CharString>
      <CharString index="85">
        248 9 rmoveto
        4 callgsubr
        -84 -23 rlineto
        -58 callgsubr
        return
      </CharString>
      <CharString index="86">
        19 21 -21 146 81 347 95 0 -20 95 120 hstemhm
        10 606 hintmask 11011100
        -82 callgsubr
        hintmask 11101100
        52 -95 rmoveto
        123 -347 rlineto
        -246 hlineto
        return
      </CharString>
      <CharString index="87">
        -3 callgsubr
        90 hmoveto
        128 77 56 71 18 callgsubr
        vhcurveto
        return
      </CharString>
      <CharString index="88">
        31 112 rmoveto
        -85 33 89 -39 86 hhcurveto
        103 99 54 94 hvcurveto
        211 -315 -99 120 vvcurveto
        43 49 23 51 47 49 -19 -40 17 vhcurveto
        79 29 rlineto
        69 -30 -78 32 -78 hhcurveto
        -96 -95 -49 -89 hvcurveto
        -198 315 100 -136 vvcurveto
        return
      </CharString>
      <CharString index="89">
        5 callgsubr
        216 hmoveto
        10 callgsubr
        -16 -22 rlineto
        endchar
      </CharString>
      <CharString index="90">
        -82 callgsubr
        -71 -442 rmoveto
        return
      </CharString>
      <CharString index="91">
        -79 callgsubr
        hvcurveto
        241 185 rmoveto
        88 53 -70 -70 1 hvcurveto
        -292 hlineto
        100 8 67 40 75 hhcurveto
        return
      </CharString>
      <CharString index="92">
        hstem
        76 94 350 94 vstem
        -63 callgsubr
        return
      </CharString>
      <CharString index="93">
        50 callgsubr
        hstemhm
        70 84 hintmask 11010000
        hintmask 10110000
        70 496 rmoveto
        -496 84 213 vlineto
        hintmask 11010000
        132 45 72 136 vhcurveto
        87 vlineto
        -83 -59 -40 -60 -35 hvcurveto
        hintmask 10110000
        -27 92 rlineto
        return
      </CharString>
      <CharString index="94">
        hstem
        76 94 350 94 vstem
        76 279 rmoveto
        -5 callgsubr
        -94 vlineto
        return
      </CharString>
      <CharString index="95">
        hstem
        0 429 -8 callgsubr
        return
      </CharString>
      <CharString index="96">
        120 hstemhm
        76 94 349 94 hintmask 01011110
        76 hmoveto
        94 hlineto
        hintmask 01101110
        571 vlineto
        305 -571 rlineto
        138 668 -94 hlineto
        hintmask 10011110
        30 callgsubr
        return
      </CharString>
      <CharString index="97">
        -138 -108 -37 -89 -124 -86 -49 callgsubr
        vhcurveto
        83 30 rlineto
        97 -47 8 callgsubr
        return
      </CharString>
      <CharString index="98">
        16 callgsubr
        265 -54 rmoveto
        -83 callgsubr
      </CharString>
      <CharString index="99">
        vstem
        179 -1 rmoveto
        -76 -23 -13 -10 -72 hhcurveto
        -34 -74 43 hlineto
        111 26 32 107 36 hvcurveto
        176 517 rlineto
        -92 hlineto
        -122 -382 -122 382 rlineto
        -93 hlineto
        return
      </CharString>
      <CharString index="100">
        -113 43 -79 116 82 45 36 48 28 vhcurveto
        hintmask 01111100
        -88 callgsubr
        hintmask 10111100
        -87 callgsubr
        return
      </CharString>
      <CharString index="101">
        hmoveto
        -26 -14 -31 -29 -48 vvcurveto
        -43 -46 callgsubr
        28 34 31 20 56 20 hvcurveto
        return
      </CharString>
      <CharString index="102">
        -195 75 -96 194 195 74 96 195 vhcurveto
        389 -94 -396 vlineto
        -132 -47 -71 -128 -128 -47 71 132 vhcurveto
        396 return
      </CharString>
      <CharString index="103">
        154 hmoveto
        269 vlineto
        106 50 57 81 96 13 -67 -76 vhcurveto
        -289 84 314 vlineto
        113 -44 77 -120 -84 -48 -36 -47 -28 vhcurveto
        return
      </CharString>
      <CharString index="104">
        38 246 rmoveto
        -179 124 -79 114 115 123 79 179 179 -123 79 -115 -114 -124 -79 -179 vhcurveto
        return
      </CharString>
      <CharString index="105">
        120 hstem
        44 519 vstem
        44 hmoveto
        519 81 -407 hlineto
        392 506 rlineto
        81 -489 -81 379 vlineto
        -394 -506 rlineto
        return
      </CharString>
      <CharString index="106">
        -56 callgsubr
        -35 callgsubr
        hvcurveto
        endchar
      </CharString>
      <CharString index="107">
        120 2 callgsubr
        return
      </CharString>
      <CharString index="108">
        rmoveto
        hintmask 11101000
        70 50 44 63 32 -16 34 -40 21 hvcurveto
        -60 -26 rlineto
        37 -13 13 -26 -26 vvcurveto
        -62 -62 -7 -32 vhcurveto
        endchar
      </CharString>
      <CharString index="109">
        -37 callgsubr
        453 81 -359 222 -70 callgsubr
        vlineto
        return
      </CharString>
      <CharString index="110">
        -72 callgsubr
        vstem
        76 hmoveto
        453 81 -359 222 -70 callgsubr
        -453 hlineto
        return
      </CharString>
      <CharString index="111">
        79 48 33 52 31 hvcurveto
        -66 vlineto
        -81 -15 -36 -61 -21 vhcurveto
        -3 -9 -22 -5 -25 hhcurveto
        -41 -50 13 52 -18 hvcurveto
        return
      </CharString>
      <CharString index="112">
        rmoveto
        -78 callgsubr
        21 -17 17 -21 -10 -11 -4 -9 -7 vhcurveto
        -80 -101 -16 -22 rlineto
        return
      </CharString>
      <CharString index="113">
        201 -121 144 -193 -192 -121 -144 -201 -40 callgsubr
        return
      </CharString>
      <CharString index="114">
        rmoveto
        85 56 -68 -118 -118 -56 -68 -85 -85 -56 68 118 118 56 68 85 hvcurveto
        endchar
      </CharString>
      <CharString index="115">
        -95 54 -112 hhcurveto
        -189 -122 -137 -208 return
      </CharString>
      <CharString index="116">
        -225 601 67 hstem
        53 276 vstem
        53 601 rmoveto
        276 67 -276 hlineto
        endchar
      </CharString>
      <CharString index="117">
        -78 callgsubr
        20 -18 18 -20 -10 -11 -4 -9 -7 vhcurveto
        -80 -101 return
      </CharString>
      <CharString index="118">
        rmoveto
        27 callgsubr
        -36 29 -29 35 hvcurveto
        endchar
      </CharString>
      <CharString index="119">
        68 497 rmoveto
        -317 vlineto
        -113 43 -79 116 82 45 36 48 28 vhcurveto
        return
      </CharString>
      <CharString index="120">
        -65 callgsubr
        30 -24 24 -30 -30 -24 -24 -30 -30 24 -24 30 hvcurveto
        endchar
      </CharString>
      <CharString index="121">
        66 hintmask 11110000
        232 hmoveto
        94 587 222 81 -538 -81 222 hlineto
        return
      </CharString>
      <CharString index="122">
        -33 callgsubr
        -203 110 -144 192 90 78 28 68 43 vhcurveto
        return
      </CharString>
      <CharString index="123">
        rmoveto
        -30 24 -24 30 -74 callgsubr
        -30 -24 -24 -29 vhcurveto
        return
      </CharString>
      <CharString index="124">
        67 hstem
        114 84 vstem
        114 hmoveto
        84 496 -153 -67 69 hlineto
        return
      </CharString>
      <CharString index="125">
        60 callgsubr
        -71 callgsubr
        -71 -77 56 128 return
      </CharString>
      <CharString index="126">
        138 133 -28 -226 -228 -133 -28 -138 hvcurveto
        return
      </CharString>
      <CharString index="127">
        -283 -250 34 216 74 355 67 hstemhm
        104 84 return
      </CharString>
      <CharString index="128">
        -49 -250 34 237 -21 587 81 hstemhm
        232 94 return
      </CharString>
      <CharString index="129">
        54 callgsubr
        -81 195 -22 hlineto
        return
      </CharString>
      <CharString index="130">
        52 -30 -53 34 -78 hhcurveto
        -113 -100 -95 -163 return
      </CharString>
      <CharString index="131">
        -288 -161 71 310 67 310 71 hstem
        return
      </CharString>
      <CharString index="132">
        79 -46 -21 264 81 256 79 hstemhm
        50 96 return
      </CharString>
      <CharString index="133">
        29 23 -23 -28 56 callgsubr
        return
      </CharString>
      <CharString index="134">
        36 29 29 36 35 -29 29 -66 callgsubr
        -35 return
      </CharString>
      <CharString index="135">
        -12 21 -100 callgsubr
        hstem
        251 94 vstem
        return
      </CharString>
      <CharString index="136">
        34 callgsubr
        63 return
      </CharString>
      <CharString index="137">
        35 callgsubr
        hlineto
        return
      </CharString>
      <CharString index="138">
        529 -84 -543 vlineto
        -103 22 -21 95 vhcurveto
        return
      </CharString>
      <CharString index="139">
        -28 0 80 425 -20 hstem
        53 473 vstem
        return
      </CharString>
      <CharString index="140">
        103 -12 79 -46 -21 264 81 256 79 return
      </CharString>
      <CharString index="141">
        -67 84 -305 vlineto
        -103 22 -21 95 vhcurveto
        return
      </CharString>
      <CharString index="142">
        -568 vlineto
        -304 568 rlineto
        -139 return
      </CharString>
      <CharString index="143">
        75 65 -50 -126 -126 -65 -51 -75 return
      </CharString>
      <CharString index="144">
        -45 -58 -29 -59 -55 -57 24 59 -15 vhcurveto
        return
      </CharString>
      <CharString index="145">
        21 -101 callgsubr
        -8 -20 hstemhm
        70 84 return
      </CharString>
      <CharString index="146">
        -91 77 -52 94 87 52 30 50 30 vhcurveto
        return
      </CharString>
      <CharString index="147">
        -21 496 -20 192 -20 hstem
        70 84 return
      </CharString>
      <CharString index="148">
        -15 -9 -10 -8 -20 -42 -26 43 -56 hhcurveto
        return
      </CharString>
      <CharString index="149">
        hstemhm
        68 84 230 84 hintmask 10111100
        68 return
      </CharString>
      <CharString index="150">
        -6 -13 -13 -2 -12 hhcurveto
        -28 -21 13 return
      </CharString>
      <CharString index="151">
        67 -34 -21 437 67 hstemhm
        38 93 return
      </CharString>
      <CharString index="152">
        -292 -161 74 681 74 hstem
        return
      </CharString>
      <CharString index="153">
        -172 rlineto
        82 hlineto
        24 172 rlineto
        return
      </CharString>
      <CharString index="154">
        17 -15 14 -16 -10 -11 -5 -14 -8 return
      </CharString>
      <CharString index="155">
        -117 -75 -36 -78 -60 -36 31 47 return
      </CharString>
      <CharString index="156">
        54 callgsubr
        hlineto
        return
      </CharString>
      <CharString index="157">
        -267 21 -21 417 87 -8 -20 return
      </CharString>
      <CharString index="158">
        59 -46 50 -61 -62 -49 -50 -59 return
      </CharString>
      <CharString index="159">
        -59 -48 -48 -59 -60 -48 48 59 return
      </CharString>
      <CharString index="160">
        76 67 37 77 38 -21 37 -41 return
      </CharString>
      <CharString index="161">
        25 -84 rlineto
        54 345 -284 return
      </CharString>
      <CharString index="162">
        94 303 350 -303 94 return
      </CharString>
      <CharString index="163">
        -28 -23 -23 -29 -29 -23 23 28 return
      </CharString>
      <CharString index="164">
        100 -79 -21 571 97 0 -20 return
      </CharString>
      <CharString index="165">
        -203 112 -144 191 return
      </CharString>
      <CharString index="166">
        rmoveto
        -67 276 67 vlineto
        endchar
      </CharString>
      <CharString index="167">
        72 76 -56 -128 return
      </CharString>
      <CharString index="168">
        78 53 34 53 30 return
      </CharString>
</ttFont>
